<svg id="Layer_2" data-name="Layer 2" xmlns="http://www.w3.org/2000/svg" viewBox="0 0 311.61 448.73"><defs><style>.cls-1{fill:#462e1b;}.cls-2{fill:#451810;}.cls-3{fill:#782a2f;}.cls-4{fill:none;stroke:#1d1d1b;stroke-miterlimit:10;}.cls-5{fill:#7e3344;}.cls-6{fill:#6b3434;}.cls-7{fill:#715940;}.cls-8{fill:#9f274b;}.cls-9{fill:#963447;}.cls-10{fill:#641532;}.cls-11{fill:#993148;}.cls-12{fill:#a4445e;}.cls-13{fill:#8b1f41;}.cls-14{fill:#912e48;}.cls-15{fill:#654d47;}.cls-16{fill:#6a3042;}.cls-17{fill:#b2739c;}.cls-18{fill:#8c5a6f;}.cls-19{fill:#7e3246;}.cls-20{fill:#926081;}.cls-21{fill:#37261b;}.cls-22{fill:#642b3b;}.cls-23{fill:#7e3639;}.cls-24{fill:#803759;}.cls-25{fill:#8c4154;}.cls-26{fill:#8a4958;}.cls-27{fill:#72342b;}.cls-28{fill:#59221d;}.cls-29{fill:#6f3831;}.cls-30{fill:#6d212f;}.cls-31{fill:#693c3f;}.cls-32{fill:#772634;}.cls-33{fill:#933b4b;}.cls-34{fill:#b25368;}.cls-35{fill:#3f1118;}.cls-36{fill:#632128;}.cls-37{fill:#7e303d;}.cls-38{fill:#5f1722;}.cls-39{fill:#a64766;}.cls-40{fill:#5e1120;}.cls-41{fill:#5b131e;}.cls-42{fill:#4d0e18;}.cls-43{fill:#85455f;}.cls-44{fill:#8b4961;}.cls-45{fill:#892f41;}.cls-46{fill:#7a1f32;}.cls-47{fill:#862a3a;}.cls-48{fill:#ae4061;}.cls-49{fill:#6e182f;}.cls-50{fill:#af3a63;}.cls-51{fill:#9d2d53;}.cls-52{fill:#793236;}.cls-53{fill:#886d48;}.cls-54{fill:#55321f;}.cls-55{fill:#734d30;}.cls-56{fill:#603a24;}.cls-57{fill:#481f19;}.cls-58{fill:#6b4736;}.cls-59{fill:#492d24;}.cls-60{fill:#5b3938;}.cls-61{fill:#4f2615;}.cls-62{fill:#522315;}.cls-63{fill:#462518;}.cls-64{fill:#664124;}.cls-65{fill:#4c2e22;}.cls-66{fill:#6b4119;}.cls-67{fill:#5b2913;}.cls-68{fill:#774f30;}.cls-69{fill:#86572f;}.cls-70{fill:#5f3612;}.cls-71{fill:#8b5f41;}.cls-72{fill:#532d13;}.cls-73{fill:#4f322b;}.cls-74{fill:#512824;}.cls-75{fill:#855e20;}.cls-76{fill:#5e3b14;}.cls-77{fill:#724c1c;}.cls-78{fill:#8d6a38;}.cls-79{fill:#785620;}.cls-80{fill:#977238;}.cls-81{fill:#866922;}.cls-82{fill:#b08944;}.cls-83{fill:#513a34;}.cls-84{fill:#292f32;}.cls-85{fill:#243335;}.cls-86{fill:#373a43;}.cls-87{fill:#4e2e26;}.cls-88{fill:#302224;}.cls-89{fill:#543727;}.cls-90{fill:#6a432c;}.cls-91{fill:#5d3315;}.cls-92{fill:#582b18;}.cls-93{fill:#7a5d2b;}.cls-94{fill:#725727;}.cls-95{fill:#6a4b1c;}.cls-96{fill:#432f21;}.cls-97{fill:#604015;}.cls-98{fill:#87663d;}.cls-99{fill:#795b2c;}.cls-100{fill:#9d8849;}.cls-101{fill:#2f343c;}.cls-102{fill:#313230;}.cls-103{fill:#242523;}.cls-104{fill:#282923;}.cls-105{fill:#282922;}.cls-106{fill:#323335;}.cls-107{fill:#522e2a;}.cls-108{fill:#29282e;}.cls-109{fill:#2d3434;}.cls-110{fill:#292e34;}.cls-111{fill:#3a2723;}.cls-112{fill:#a08e58;}.cls-113{fill:#8c6828;}.cls-114{fill:#73581f;}.cls-115{fill:#a07328;}.cls-116{fill:#5d3412;}.cls-117{fill:#54341d;}.cls-118{fill:#2c1719;}.cls-119{fill:#27262a;}.cls-120{fill:#292928;}.cls-121{fill:#2a2f2b;}.cls-122{fill:#343438;}.cls-123{fill:#32343c;}.cls-124{fill:#363e3f;}.cls-125{fill:#562c25;}.cls-126{fill:#653e38;}.cls-127{fill:#704126;}.cls-128{fill:#642f16;}.cls-129{fill:#252525;}.cls-130{fill:#302e2f;}.cls-131{fill:#262626;}.cls-132{fill:#242424;}.cls-133{fill:#414746;}.cls-134{fill:#25312c;}.cls-135{fill:#37433e;}.cls-136{fill:#1b1a1d;}.cls-137{fill:#1f1e1e;}.cls-138{fill:#2a2b28;}.cls-139{fill:#241b1f;}.cls-140{fill:#31282e;}.cls-141{fill:#2b2b2a;}.cls-142{fill:#2a2b2a;}.cls-143{fill:#3e2b23;}.cls-144{fill:#7c3e2b;}.cls-145{fill:#69331d;}.cls-146{fill:#532e1f;}.cls-147{fill:#32403d;}.cls-148{fill:#73432c;}.cls-149{fill:#523327;}.cls-150{fill:#272724;}.cls-151{fill:#303437;}.cls-152{fill:#283034;}.cls-153{fill:#35373c;}.cls-154{fill:#252830;}.cls-155{fill:#2b2c29;}.cls-156{fill:#282826;}.cls-157{fill:#2d3333;}.cls-158{fill:#3a383b;}.cls-159{fill:#2d2f2c;}.cls-160{fill:#23231c;}.cls-161{fill:#1c2121;}.cls-162{fill:#272826;}.cls-163{fill:#3a4549;}.cls-164{fill:#664730;}.cls-165{fill:#5e3f24;}.cls-166{fill:#473b2b;}.cls-167{fill:#5d3f27;}.cls-168{fill:#5b3b23;}.cls-169{fill:#a48c74;}.cls-170{fill:#64483d;}.cls-171{fill:#a59e94;}.cls-172{fill:#a19a91;}.cls-173{fill:#81787a;}.cls-174{fill:#756a6c;}.cls-175{fill:#847d74;}.cls-176{fill:#74706e;}.cls-177{fill:#918b86;}.cls-178{fill:#8f8a7f;}.cls-179{fill:#898a81;}.cls-180{fill:#9b9287;}.cls-181{fill:#7c7b6f;}.cls-182{fill:#74747d;}.cls-183{fill:#8d8b81;}.cls-184{fill:#4d4141;}.cls-185{fill:#2c3d3d;}.cls-186{fill:#333d47;}.cls-187{fill:#243743;}.cls-188{fill:#4c545f;}.cls-189{fill:#243445;}.cls-190{fill:#454251;}.cls-191{fill:#344151;}.cls-192{fill:#303f47;}.cls-193{fill:#393b45;}.cls-194{fill:#343f52;}.cls-195{fill:#344144;}.cls-196{fill:#3d5069;}.cls-197{fill:#374a64;}.cls-198{fill:#32374e;}.cls-199{fill:#2d3640;}.cls-200{fill:#424857;}.cls-201{fill:#2c3640;}.cls-202{fill:#40566b;}.cls-203{fill:#415153;}.cls-204{fill:#373f54;}.cls-205{fill:#3a4852;}.cls-206{fill:#76513e;}.cls-207{fill:#2e3434;}.cls-208{fill:#504d48;}.cls-209{fill:#394b54;}.cls-210{fill:#635d59;}.cls-211{fill:#263138;}.cls-212{fill:#172533;}.cls-213{fill:#425365;}.cls-214{fill:#8e521c;}.cls-215{fill:#8e4e19;}.cls-216{fill:#85522d;}.cls-217{fill:#5c6777;}.cls-218{fill:#78665c;}.cls-219{fill:#37474e;}.cls-220{fill:#333030;}.cls-221{fill:#2a3a45;}.cls-222{fill:#4b5c70;}.cls-223{fill:#333d4a;}.cls-224{fill:#364448;}.cls-225{fill:#0a0e12;}.cls-226{fill:#2d313e;}.cls-227{fill:#272823;}.cls-228{fill:#1b1d21;}.cls-229{fill:#1d2223;}.cls-230{fill:#6f3b16;}.cls-231{fill:#735743;}.cls-232{fill:#612810;}.cls-233{fill:#5e6271;}.cls-234{fill:#343d4f;}.cls-235{fill:#733f1d;}.cls-236{fill:#271f16;}.cls-237{fill:#572d1b;}.cls-238{fill:#594634;}.cls-239{fill:#301910;}.cls-240{fill:#6d4b31;}.cls-241{fill:#815e33;}.cls-242{fill:#a67b42;}.cls-243{fill:#7c6043;}.cls-244{fill:#b09f63;}</style></defs><title>Cock</title><polygon class="cls-1" points="0.19 54 13.74 54 11.03 45.48 0.19 54"/><polygon class="cls-2" points="11.03 45.48 5.36 39.81 13.1 27.03 11.03 45.48"/><polygon class="cls-3" points="13.1 27.03 32.65 7.48 40.65 28.26 13.1 27.03"/><path class="cls-4" d="M218.94,123.23" transform="translate(-186.29 -115.74)"/><polygon class="cls-5" points="40.65 28.26 46.16 0 51 27.03 40.65 28.26"/><polygon class="cls-6" points="51 27.03 58.84 6.68 59.71 28.26 51 27.03"/><polygon class="cls-7" points="59.71 28.26 72.87 21.1 75 33.58 59.71 28.26"/><polygon class="cls-8" points="11.03 45.48 29.42 27.76 13.1 27.03 11.03 45.48"/><polygon class="cls-9" points="29.42 27.76 34.06 42.48 45.82 36.26 29.42 27.76"/><polygon class="cls-10" points="13.74 54 34.06 42.48 11.03 45.48 13.74 54"/><polygon class="cls-11" points="29.42 27.76 11.03 45.48 34.06 42.48 29.42 27.76"/><polygon class="cls-12" points="45.82 36.26 59.71 28.26 51 27.03 45.82 36.26"/><polygon class="cls-13" points="40.65 28.26 45.82 36.26 51 27.03 40.65 28.26"/><polygon class="cls-14" points="29.42 27.76 40.65 28.26 45.82 36.26 29.42 27.76"/><polygon class="cls-15" points="75 33.58 80.84 39.03 73.36 49.74 75 33.58"/><polygon class="cls-16" points="73.36 49.74 56.45 56.45 65.48 46.26 73.36 49.74"/><polygon class="cls-17" points="65.48 46.26 59.71 37.23 75 33.58 65.48 46.26"/><polygon class="cls-18" points="65.48 46.26 73.36 49.74 75 33.58 65.48 46.26"/><polygon class="cls-19" points="59.71 37.23 45.82 36.26 59.71 28.26 59.71 37.23"/><polygon class="cls-20" points="59.71 37.23 75 33.58 59.71 28.26 59.71 37.23"/><polygon class="cls-21" points="13.74 54 18.77 66.26 24.45 56.45 13.74 54"/><polygon class="cls-22" points="13.74 54 34.06 42.48 24.45 56.45 13.74 54"/><polygon class="cls-23" points="34.06 42.48 52.77 42.48 45.82 36.26 34.06 42.48"/><polygon class="cls-24" points="52.77 42.48 65.48 46.26 59.71 37.23 52.77 42.48"/><polygon class="cls-25" points="52.77 42.48 45.82 36.26 59.71 37.23 52.77 42.48"/><polygon class="cls-26" points="56.45 56.45 52.77 42.48 65.48 46.26 56.45 56.45"/><polygon class="cls-27" points="52.77 42.48 39.24 56.01 34.06 42.48 52.77 42.48"/><polygon class="cls-28" points="39.24 56.01 52.77 42.48 56.45 56.45 39.24 56.01"/><polygon class="cls-29" points="39.24 56.01 24.45 56.45 34.06 42.48 39.24 56.01"/><path class="cls-30" d="M205.06,182l-8.25,10.19s5.42,6.58,6.06,6.58S205.06,182,205.06,182Z" transform="translate(-186.29 -115.74)"/><polygon class="cls-31" points="18.77 66.26 26.13 72.58 24.45 56.45 18.77 66.26"/><polygon class="cls-32" points="26.13 72.58 16.58 83.03 18.77 66.26 26.13 72.58"/><polygon class="cls-33" points="26.13 72.58 30.9 79.03 38.65 66.26 26.13 72.58"/><polygon class="cls-34" points="38.65 66.26 24.45 56.45 26.13 72.58 38.65 66.26"/><polygon class="cls-35" points="38.65 66.26 39.24 56.01 24.45 56.45 38.65 66.26"/><polygon class="cls-36" points="10.52 76.45 4.64 82.64 4.64 97.64 10.52 76.45"/><polygon class="cls-37" points="4.64 97.64 8.52 105.87 16.58 83.03 4.64 97.64"/><polygon class="cls-38" points="10.52 76.45 4.64 97.64 16.58 83.03 10.52 76.45"/><polygon class="cls-39" points="16.58 83.03 26.71 96.48 30.9 79.03 16.58 83.03"/><polygon class="cls-40" points="16.58 83.03 26.13 72.58 30.9 79.03 16.58 83.03"/><polygon class="cls-41" points="8.52 105.87 20.23 112.55 16.58 83.03 8.52 105.87"/><polygon class="cls-42" points="20.23 112.55 26.71 96.48 16.58 83.03 20.23 112.55"/><polygon class="cls-43" points="38.65 66.26 48.39 66.26 39.24 56.01 38.65 66.26"/><polygon class="cls-44" points="48.39 66.26 56.45 56.45 39.24 56.01 48.39 66.26"/><polygon class="cls-45" points="20.23 112.55 38.65 112.55 26.71 96.48 20.23 112.55"/><polygon class="cls-46" points="38.65 112.55 46.84 105.87 26.71 96.48 38.65 112.55"/><polygon class="cls-47" points="46.84 105.87 54.73 97.98 26.71 96.48 46.84 105.87"/><polygon class="cls-48" points="30.9 79.03 56.45 84.87 54.73 97.98 30.9 79.03"/><polygon class="cls-49" points="30.9 79.03 26.71 96.48 54.73 97.98 30.9 79.03"/><polygon class="cls-50" points="56.45 84.87 57.19 69.29 30.9 79.03 56.45 84.87"/><polygon class="cls-51" points="57.19 69.29 48.39 66.26 30.9 79.03 57.19 69.29"/><polygon class="cls-52" points="38.65 66.26 30.9 79.03 48.39 66.26 38.65 66.26"/><polygon class="cls-53" points="56.45 56.45 48.39 66.26 57.19 69.29 56.45 56.45"/><polygon class="cls-54" points="56.45 56.45 74.27 79.31 57.19 69.29 56.45 56.45"/><polygon class="cls-55" points="74.27 79.31 85.74 91.42 55.51 92.04 74.27 79.31"/><polygon class="cls-56" points="57.19 69.29 56.45 84.87 74.27 79.31 57.19 69.29"/><polygon class="cls-57" points="56.45 84.87 55.51 92.04 74.27 79.31 56.45 84.87"/><polygon class="cls-58" points="55.51 92.04 54.73 97.98 85.74 91.42 55.51 92.04"/><polygon class="cls-59" points="38.65 112.55 25.48 134.52 28.19 112.55 38.65 112.55"/><polygon class="cls-60" points="38.65 112.55 46.84 105.87 47.84 128.84 38.65 112.55"/><polygon class="cls-61" points="54.73 97.98 70.63 106.9 85.74 91.42 54.73 97.98"/><polygon class="cls-62" points="70.63 106.9 74.27 126 54.73 97.98 70.63 106.9"/><polygon class="cls-63" points="54.73 97.98 46.84 105.87 47.39 118.38 54.73 97.98"/><polygon class="cls-64" points="47.39 118.38 54.73 97.98 74.27 126 47.39 118.38"/><polygon class="cls-65" points="47.84 128.84 25.48 134.52 38.65 112.55 47.84 128.84"/><polygon class="cls-66" points="47.39 118.38 47.84 128.84 74.27 126 47.39 118.38"/><polygon class="cls-67" points="85.74 91.42 70.63 106.9 106.71 111.99 85.74 91.42"/><polygon class="cls-68" points="70.63 106.9 74.27 126 106.71 111.99 70.63 106.9"/><polygon class="cls-69" points="74.27 126 86.71 141.68 106.71 111.99 74.27 126"/><polygon class="cls-70" points="86.71 141.68 130.26 147.48 106.71 111.99 86.71 141.68"/><polygon class="cls-71" points="74.27 126 57.19 127.83 74.27 143.23 74.27 126"/><polygon class="cls-72" points="74.27 143.23 86.71 141.68 74.27 126 74.27 143.23"/><polygon class="cls-73" points="25.48 134.52 15.81 160.97 47.84 128.84 25.48 134.52"/><polygon class="cls-74" points="15.81 160.97 55.51 162.39 47.84 128.84 15.81 160.97"/><polygon class="cls-75" points="55.51 162.39 74.47 143.42 57.19 127.83 55.51 162.39"/><polygon class="cls-76" points="47.84 128.84 57.19 127.83 55.51 162.39 47.84 128.84"/><polygon class="cls-77" points="74.47 143.42 86.71 141.68 95.55 163.42 74.47 143.42"/><polygon class="cls-78" points="95.55 163.42 55.51 162.39 74.47 143.42 95.55 163.42"/><polygon class="cls-79" points="95.55 163.42 86.71 141.68 121.36 160.97 95.55 163.42"/><polygon class="cls-80" points="130.26 147.48 121.36 160.97 86.71 141.68 130.26 147.48"/><polygon class="cls-81" points="130.26 147.48 138.65 151.32 138.65 183.94 130.26 147.48"/><polygon class="cls-82" points="130.26 147.48 121.36 160.97 138.65 183.94 130.26 147.48"/><polygon class="cls-83" points="15.81 160.97 7.42 193.48 39.28 161.81 15.81 160.97"/><polygon class="cls-84" points="39.28 161.81 7.42 193.48 43.24 203.68 39.28 161.81"/><polygon class="cls-85" points="7.42 193.48 0.58 219.16 43.24 219.68 7.42 193.48"/><polygon class="cls-86" points="43.24 219.68 43.24 203.68 7.42 193.48 43.24 219.68"/><polygon class="cls-87" points="55.51 162.39 43.24 203.68 39.28 161.81 55.51 162.39"/><polygon class="cls-88" points="43.24 219.68 81.48 219.68 43.24 203.68 43.24 219.68"/><polygon class="cls-89" points="81.48 219.68 80.61 201.19 43.24 203.68 81.48 219.68"/><polygon class="cls-90" points="55.51 162.39 81.48 192 51.1 177.23 55.51 162.39"/><polygon class="cls-91" points="81.48 192 80.61 201.19 43.24 203.68 81.48 192"/><polygon class="cls-92" points="81.48 192 51.1 177.23 43.24 203.68 81.48 192"/><polygon class="cls-93" points="81.48 192 95.55 163.42 55.51 162.39 81.48 192"/><polygon class="cls-94" points="95.55 163.42 138.65 183.94 121.36 160.97 95.55 163.42"/><polygon class="cls-95" points="81.48 192 138.65 183.94 95.55 163.42 81.48 192"/><polygon class="cls-96" points="81.48 219.68 120.19 219.68 80.61 201.19 81.48 219.68"/><polygon class="cls-97" points="120.19 219.68 138.65 183.94 101.13 210.77 120.19 219.68"/><polygon class="cls-98" points="80.61 201.19 124.26 194.23 101.13 210.77 80.61 201.19"/><polygon class="cls-99" points="81.48 192 124.26 194.23 80.61 201.19 81.48 192"/><polygon class="cls-100" points="124.26 194.23 138.65 183.94 81.48 192 124.26 194.23"/><polygon class="cls-101" points="120.19 219.68 119.89 257.32 89.71 233.52 120.19 219.68"/><polygon class="cls-102" points="89.71 233.52 81.48 219.68 120.19 219.68 89.71 233.52"/><polygon class="cls-103" points="0.58 219.16 0 238.94 24.77 238.5 0.58 219.16"/><polygon class="cls-104" points="0 238.94 0 257.71 24.77 238.5 0 238.94"/><polygon class="cls-105" points="0 257.71 8.9 275.52 24.77 238.5 0 257.71"/><polygon class="cls-106" points="24.77 238.5 43.24 219.68 0.58 219.16 24.77 238.5"/><polygon class="cls-107" points="89.71 233.52 66.87 219.68 81.48 219.68 89.71 233.52"/><polygon class="cls-108" points="43.24 219.68 52.45 238.5 24.77 238.5 43.24 219.68"/><polygon class="cls-109" points="52.45 238.5 73.55 238.5 66.87 219.68 52.45 238.5"/><polygon class="cls-110" points="52.45 238.5 43.24 219.68 66.87 219.68 52.45 238.5"/><polygon class="cls-111" points="73.55 238.5 89.71 233.52 66.87 219.68 73.55 238.5"/><polygon class="cls-112" points="138.65 183.94 150.13 182.74 158.65 204.58 138.65 183.94"/><polygon class="cls-113" points="158.65 204.58 158 219.68 132.85 195.17 158.65 204.58"/><polygon class="cls-114" points="158.65 204.58 138.65 183.94 132.85 195.17 158.65 204.58"/><polygon class="cls-115" points="158 219.68 120.19 219.68 132.85 195.17 158 219.68"/><polygon class="cls-116" points="120.19 219.68 139.1 229.29 158 219.68 120.19 219.68"/><polygon class="cls-117" points="139.1 229.29 120.19 229.29 120.19 219.68 139.1 229.29"/><polygon class="cls-118" points="119.89 257.32 139.1 229.29 120.19 229.29 119.89 257.32"/><polygon class="cls-119" points="8.9 275.52 28.45 302.9 57.1 257.71 8.9 275.52"/><polygon class="cls-120" points="8.9 275.52 57.1 257.71 24.77 238.5 8.9 275.52"/><polygon class="cls-121" points="57.1 257.71 73.55 238.5 52.45 238.5 57.1 257.71"/><polygon class="cls-122" points="57.1 257.71 24.77 238.5 52.45 238.5 57.1 257.71"/><polygon class="cls-123" points="57.1 257.71 73.55 238.5 119.89 257.32 57.1 257.71"/><polygon class="cls-124" points="89.71 233.52 73.55 238.5 119.89 257.32 89.71 233.52"/><polygon class="cls-125" points="158 219.68 187.42 255.81 162.77 257.32 158 219.68"/><polygon class="cls-126" points="139.1 229.29 162.77 257.32 158 219.68 139.1 229.29"/><polygon class="cls-127" points="139.1 229.29 119.89 257.32 141.1 248.97 139.1 229.29"/><polygon class="cls-128" points="141.1 248.97 162.77 257.32 139.1 229.29 141.1 248.97"/><polygon class="cls-129" points="28.45 302.9 50.61 329.23 57.1 257.71 28.45 302.9"/><polygon class="cls-130" points="50.61 329.23 60.39 352.84 81.48 334.64 50.61 329.23"/><polygon class="cls-131" points="50.61 329.23 57.1 257.71 81.48 334.64 50.61 329.23"/><polygon class="cls-132" points="81.48 334.64 98.9 298.64 57.1 257.71 81.48 334.64"/><polygon class="cls-133" points="98.9 298.64 114.97 296.18 98.13 257.46 98.9 298.64"/><polygon class="cls-134" points="98.9 298.64 57.1 257.71 98.13 257.46 98.9 298.64"/><polygon class="cls-135" points="114.97 296.18 119.89 257.32 98.13 257.46 114.97 296.18"/><polygon class="cls-136" points="60.39 352.84 76.06 378.77 81.48 334.64 60.39 352.84"/><polygon class="cls-137" points="81.48 334.64 98.9 298.64 118.84 334.64 81.48 334.64"/><polygon class="cls-138" points="81.48 334.64 76.06 378.77 102.58 354 81.48 334.64"/><polygon class="cls-139" points="76.06 378.77 81.48 389.03 98.9 376.06 76.06 378.77"/><polygon class="cls-140" points="98.9 376.06 85.98 369.51 76.06 378.77 98.9 376.06"/><polygon class="cls-141" points="102.58 354 118.84 334.64 81.48 334.64 102.58 354"/><polygon class="cls-142" points="114.97 296.18 118.84 334.64 98.9 298.64 114.97 296.18"/><polygon class="cls-143" points="119.89 257.32 114.97 296.18 136.58 296.18 119.89 257.32"/><polygon class="cls-144" points="119.89 257.32 141.1 248.97 162.77 257.32 119.89 257.32"/><polygon class="cls-145" points="119.89 257.32 136.58 296.18 162.77 257.32 119.89 257.32"/><polygon class="cls-146" points="136.58 296.18 165.87 296.18 156.52 266.61 136.58 296.18"/><polygon class="cls-147" points="136.58 296.18 118.84 334.64 114.97 296.18 136.58 296.18"/><polygon class="cls-148" points="162.77 257.32 165.87 296.18 156.52 266.61 162.77 257.32"/><polygon class="cls-149" points="187.42 255.81 165.87 296.18 162.77 257.32 187.42 255.81"/><polygon class="cls-150" points="98.9 376.06 102.58 354 85.98 369.51 98.9 376.06"/><polygon class="cls-151" points="118.84 334.64 148.65 331.16 132.42 305.2 118.84 334.64"/><polygon class="cls-152" points="148.65 331.16 156.52 296.18 132.42 305.2 148.65 331.16"/><polygon class="cls-153" points="132.42 305.2 136.58 296.18 156.52 296.18 132.42 305.2"/><polygon class="cls-154" points="148.65 331.16 165.87 296.18 156.52 296.18 148.65 331.16"/><polygon class="cls-155" points="98.9 376.06 123.1 374.14 102.58 354 98.9 376.06"/><polygon class="cls-156" points="123.1 374.14 118.84 334.64 102.58 354 123.1 374.14"/><polygon class="cls-157" points="148.65 331.16 120.37 348.87 118.84 334.64 148.65 331.16"/><polygon class="cls-158" points="98.9 376.06 119.55 393.74 123.1 374.14 98.9 376.06"/><path class="cls-159" d="M305.84,509.48s29.29-5.67,29.1-6.06-25.55-13.53-25.55-13.53Z" transform="translate(-186.29 -115.74)"/><polygon class="cls-160" points="148.65 387.68 159.16 382.55 123.1 374.14 148.65 387.68"/><polygon class="cls-161" points="159.16 382.55 120.37 348.87 123.1 374.14 159.16 382.55"/><polygon class="cls-162" points="148.65 331.16 157.26 338.52 120.37 348.87 148.65 331.16"/><polygon class="cls-163" points="157.26 338.52 165.87 296.18 148.65 331.16 157.26 338.52"/><polygon class="cls-164" points="157.26 338.52 165.23 354 159.16 382.55 157.26 338.52"/><polygon class="cls-165" points="157.26 338.52 120.37 348.87 159.16 382.55 157.26 338.52"/><polygon class="cls-166" points="159.16 382.55 168.45 396.19 184.32 376.71 159.16 382.55"/><polygon class="cls-167" points="184.32 376.71 165.23 354 159.16 382.55 184.32 376.71"/><polygon class="cls-168" points="165.23 354 177.74 337.61 157.26 338.52 165.23 354"/><polygon class="cls-169" points="177.74 337.61 165.87 296.18 157.26 338.52 177.74 337.61"/><polygon class="cls-170" points="177.74 337.61 184.32 376.71 165.23 354 177.74 337.61"/><path class="cls-171" d="M267.77,504.77s-8.71,29-7.35,28.65,24.77-41.61,24.77-41.61Z" transform="translate(-186.29 -115.74)"/><path class="cls-172" d="M260.42,533.42s7.74,9.68,7.35,8.9,5.46-29.71,5.46-29.71Z" transform="translate(-186.29 -115.74)"/><polygon class="cls-173" points="74.13 417.68 67.74 441.48 81.48 426.58 74.13 417.68"/><polygon class="cls-174" points="81.48 426.58 81.48 441.48 67.74 441.48 81.48 426.58"/><polygon class="cls-175" points="81.48 441.48 90.39 448.64 61.55 448.64 81.48 441.48"/><path class="cls-176" d="M254,557.23s-26.32,7-25.74,7.16,19.55,0,19.55,0Z" transform="translate(-186.29 -115.74)"/><polygon class="cls-177" points="67.74 441.48 81.48 441.48 61.55 448.64 67.74 441.48"/><polygon class="cls-178" points="148.65 387.68 148.65 408.45 159.16 382.55 148.65 387.68"/><path class="cls-179" d="M334.94,524.19s2.51,14.84,2.9,14.84,6.71-8.26,6.71-8.26Z" transform="translate(-186.29 -115.74)"/><polygon class="cls-180" points="158.26 415.03 159.16 382.55 148.65 408.45 158.26 415.03"/><polygon class="cls-181" points="151.55 423.29 150.52 446.9 158.26 415.03 151.55 423.29"/><polygon class="cls-182" points="150.52 446.9 170 444.32 158.65 432.26 150.52 446.9"/><polygon class="cls-183" points="158.65 432.26 158.26 415.03 150.52 446.9 158.65 432.26"/><polygon class="cls-184" points="158 219.68 188.9 226.6 187.42 255.81 158 219.68"/><polygon class="cls-185" points="188.9 226.6 191.42 179.23 218.32 199.94 188.9 226.6"/><polygon class="cls-186" points="191.42 179.23 207.1 142.45 228.39 170.13 191.42 179.23"/><path class="cls-187" d="M393.39,258.19l30.19-25.35s-8.15,54-8.9,53Z" transform="translate(-186.29 -115.74)"/><polygon class="cls-188" points="228.39 170.13 218.32 199.94 191.42 179.23 228.39 170.13"/><polygon class="cls-189" points="237.29 117.1 268.45 108.97 232.7 146.59 237.29 117.1"/><polygon class="cls-190" points="268.45 108.97 311.61 110.32 272.52 124.84 268.45 108.97"/><polygon class="cls-191" points="272.52 124.84 268.45 108.97 232.7 146.59 272.52 124.84"/><polygon class="cls-192" points="232.7 146.59 228.39 170.13 260.52 164.13 232.7 146.59"/><polygon class="cls-193" points="232.7 146.59 257.01 133.31 276.58 148.26 232.7 146.59"/><polygon class="cls-194" points="232.7 146.59 260.52 164.13 276.58 148.26 232.7 146.59"/><polygon class="cls-195" points="188.9 226.6 233.61 243.31 218.32 199.94 188.9 226.6"/><polygon class="cls-196" points="218.32 199.94 266.13 201.81 228.39 170.13 218.32 199.94"/><polygon class="cls-197" points="266.13 201.81 260.52 164.13 228.39 170.13 266.13 201.81"/><polygon class="cls-198" points="260.52 164.13 294.13 171.16 276.58 148.26 260.52 164.13"/><polygon class="cls-199" points="266.13 201.81 298 206.13 287.57 169.79 266.13 201.81"/><polygon class="cls-200" points="266.13 201.81 260.52 164.13 287.57 169.79 266.13 201.81"/><polygon class="cls-201" points="233.61 243.31 266.13 201.81 218.32 199.94 233.61 243.31"/><polygon class="cls-202" points="233.61 243.31 278.39 244.06 256 214.73 233.61 243.31"/><polygon class="cls-203" points="256 214.73 266.13 201.81 278.39 244.06 256 214.73"/><polygon class="cls-204" points="278.39 244.06 298 206.13 266.13 201.81 278.39 244.06"/><path class="cls-205" d="M464.68,359.81s13.29,9.42,13.42,9,6.19-47,6.19-47Z" transform="translate(-186.29 -115.74)"/><polygon class="cls-206" points="187.42 255.81 208.32 259.16 188.34 237.74 187.42 255.81"/><polygon class="cls-207" points="188.34 237.74 188.9 226.6 233.61 243.31 188.34 237.74"/><polygon class="cls-208" points="188.34 237.74 208.32 259.16 233.61 243.31 188.34 237.74"/><polygon class="cls-209" points="233.61 243.31 278.39 244.06 260.45 257.87 233.61 243.31"/><polygon class="cls-210" points="233.61 243.31 234.39 257.32 208.32 259.16 233.61 243.31"/><polygon class="cls-211" points="234.39 257.32 260.45 257.87 233.61 243.31 234.39 257.32"/><polygon class="cls-212" points="260.45 257.87 278.39 244.06 291.81 253.1 260.45 257.87"/><polygon class="cls-213" points="291.81 253.1 286.9 270.9 260.45 257.87 291.81 253.1"/><polygon class="cls-214" points="208.32 259.16 227.68 294 194.77 296.18 208.32 259.16"/><polygon class="cls-215" points="208.32 259.16 187.42 255.81 194.77 296.18 208.32 259.16"/><path class="cls-216" d="M381.06,411.92s-29.22.6-28.9,0l21.55-40.37Z" transform="translate(-186.29 -115.74)"/><polygon class="cls-217" points="234.39 257.32 234.39 279.42 208.32 259.16 234.39 257.32"/><polygon class="cls-218" points="227.68 294 234.39 279.42 208.32 259.16 227.68 294"/><polygon class="cls-219" points="234.39 279.42 260.45 257.87 234.39 257.32 234.39 279.42"/><polygon class="cls-220" points="234.39 279.42 249.39 295.06 271.94 286.06 234.39 279.42"/><polygon class="cls-221" points="234.39 279.42 260.45 257.87 271.94 286.06 234.39 279.42"/><polygon class="cls-222" points="271.94 286.06 286.9 270.9 260.45 257.87 271.94 286.06"/><path class="cls-223" d="M458.23,401.81s10.77,9.67,10.12,9.67-32.67-.67-32.67-.67Z" transform="translate(-186.29 -115.74)"/><polygon class="cls-224" points="271.94 286.06 286.9 270.9 282.06 295.74 271.94 286.06"/><polygon class="cls-225" points="227.68 294 249.39 295.06 234.39 279.42 227.68 294"/><polygon class="cls-226" points="249.39 295.06 250.39 316.32 282.06 295.74 249.39 295.06"/><path class="cls-227" d="M436.68,432.06l-4.91,20.52s-12.38-20-11.09-20S436.68,432.06,436.68,432.06Z" transform="translate(-186.29 -115.74)"/><polygon class="cls-228" points="234.39 316.84 249.39 295.06 250.39 316.32 234.39 316.84"/><polygon class="cls-229" points="234.39 316.84 227.68 294 249.39 295.06 234.39 316.84"/><polygon class="cls-230" points="227.68 294 194.77 296.18 219.55 319.92 227.68 294"/><polygon class="cls-231" points="219.55 319.92 234.39 316.84 227.68 294 219.55 319.92"/><path class="cls-232" d="M381.06,411.92l-17.74.26s6.65,33.3,7,33.17S381.06,411.92,381.06,411.92Z" transform="translate(-186.29 -115.74)"/><polygon class="cls-233" points="184.06 329.61 177.74 337.61 165.87 296.18 184.06 329.61"/><polygon class="cls-234" points="184.06 329.61 177.03 296.44 165.87 296.18 184.06 329.61"/><polygon class="cls-235" points="184.06 329.61 219.55 319.92 194.77 296.18 184.06 329.61"/><polygon class="cls-236" points="184.06 329.61 184.32 376.71 177.74 337.61 184.06 329.61"/><polygon class="cls-237" points="184.06 329.61 219.55 319.92 184.18 350.03 184.06 329.61"/><polygon class="cls-238" points="219.55 319.92 234.39 316.84 231.97 333.68 219.55 319.92"/><path class="cls-239" d="M405.84,435.67s13.29,13.75,12.42,13.75-19.16,10.16-19.16,10.16Z" transform="translate(-186.29 -115.74)"/><polygon class="cls-240" points="212.32 343.84 184.18 350.03 219.55 319.92 212.32 343.84"/><polygon class="cls-241" points="106.71 111.99 119.89 116.9 130.26 147.48 106.71 111.99"/><polygon class="cls-242" points="138.65 151.32 119.89 116.9 130.26 147.48 138.65 151.32"/><polygon class="cls-243" points="119.89 116.9 85.74 91.42 106.71 111.99 119.89 116.9"/><polygon class="cls-244" points="138.65 151.32 138.65 183.94 150.13 182.74 138.65 151.32"/><path class="cls-4" d="M215.71,143.5" transform="translate(-186.29 -115.74)"/></svg>