<svg xmlns="http://www.w3.org/2000/svg" xmlns:xlink="http://www.w3.org/1999/xlink" viewBox="0 0 595.66 793.7"><defs><style>.cls-1{fill:#59697b;}.cls-2{fill:#607285;}.cls-3{fill:#617489;}.cls-4{fill:#52677b;}.cls-5{fill:#445f72;}.cls-6{fill:#4d6076;}.cls-7{fill:#768998;}.cls-8{fill:#586a7b;}.cls-9{fill:#536576;}.cls-10{fill:#4f6478;}.cls-11{fill:#a59e9c;}.cls-12{fill:#979596;}.cls-13{fill:#87888e;}.cls-14{fill:#959ea8;}.cls-15{fill:#687583;}.cls-16{fill:#a5a9b0;}.cls-17{fill:#94a4b0;}.cls-18{fill:#c1bebf;}.cls-19{fill:#d0c5c5;}.cls-20{fill:#b5a69f;}.cls-21{fill:#5f616b;}.cls-22{fill:#43586c;}.cls-23{fill:#40526a;}.cls-24{fill:#4b5c71;}.cls-25{fill:#334861;}.cls-26{fill:#3f546a;}.cls-27{fill:#4b6178;}.cls-28{fill:#4f6376;}.cls-29{fill:#adb8c0;}.cls-30{fill:#aebdc3;}.cls-31{fill:#aabdc5;}.cls-32{fill:#a9bec4;}.cls-33{fill:#858d92;}.cls-34{fill:#4a5a6d;}.cls-35{fill:#41617c;}.cls-36{fill:#476481;}.cls-37{fill:#3e566a;}.cls-38{fill:#6d757f;}.cls-39{fill:#526578;}.cls-40{fill:#4a6077;}.cls-41{fill:#788895;}.cls-42{fill:#54677b;}.cls-43{fill:#728193;}.cls-44{fill:#8291a1;}.cls-45{fill:#546a80;}.cls-46{fill:#647482;}.cls-47{fill:#5f7083;}.cls-48{fill:#728496;}.cls-49{fill:#7d8e9d;}.cls-50{fill:#8f9ba6;}.cls-51{fill:#99a2ab;}.cls-52{fill:#90939a;}.cls-53{fill:#9c9d9f;}.cls-54{fill:#bdc9c9;}.cls-55{fill:#bbc6c6;}.cls-56{fill:#9eaeb3;}.cls-57{fill:#859299;}.cls-58{fill:#a8a9aa;}.cls-59{fill:#acb3b4;}.cls-60{fill:#a5adb0;}.cls-61{fill:#838888;}.cls-62{fill:#8c7c73;}.cls-63{fill:#a8a8a6;}.cls-64{fill:#b5b0a8;}.cls-65{fill:#b1b9b3;}.cls-66{fill:#fddfbe;}.cls-67{fill:#c2b2a5;}.cls-68{fill:#cfcfc1;}.cls-69{fill:#646569;}.cls-70{fill:#cbccc0;}.cls-71{fill:#86807c;}.cls-72{fill:#5d5954;}.cls-73{fill:#aa9c89;}.cls-74{fill:#b0a18c;}.cls-75{fill:#cbbb9e;}.cls-76{fill:#e0d7b7;}.cls-77{fill:#dcd6bd;}.cls-78{fill:#efd7ab;}.cls-79{fill:#e0d7ba;}.cls-80{fill:#e1d7b8;}.cls-81{fill:#bbaa9d;}.cls-82{fill:#b38e6a;}.cls-83{fill:#b29579;}.cls-84{fill:#b9855e;}.cls-85{fill:#f9bb7e;}.cls-86{fill:#f4c08a;}.cls-87{fill:#fceb9a;}.cls-88{fill:#f6d2a0;}.cls-89{fill:#feeba3;}.cls-90{fill:#f29769;}.cls-91{fill:#f2a578;}.cls-92{fill:#ec9b73;}.cls-93{fill:#f5ad77;}.cls-94{fill:#e1a97e;}.cls-95{fill:#cb8f71;}.cls-96{fill:#a87658;}.cls-97{fill:#9f664e;}.cls-98{fill:#956d5b;}.cls-99{fill:#978584;}.cls-100{fill:#91807d;}.cls-101{fill:#6d6f76;}.cls-102{fill:#807779;}.cls-103{fill:#797274;}.cls-104{fill:#5c565a;}.cls-105{fill:#626061;}.cls-106{fill:#584f50;}.cls-107{fill:#675f61;}.cls-108{fill:#23221f;}.cls-109{fill:#141717;}.cls-110{fill:#94786e;}.cls-111{fill:#3c3d44;}.cls-112{fill:#3c383d;}.cls-113{fill:#e05c17;}.cls-114{fill:#c74e1e;}.cls-115{fill:#3b3031;}.cls-116{fill:#5a606b;}.cls-117{fill:#988e8a;}.cls-118{fill:#061417;}.cls-119{fill:#182329;}.cls-120{fill:#0e1b1e;}.cls-121{fill:#09141b;}.cls-122{fill:#070e10;}.cls-123{fill:#252f31;}.cls-124{fill:#c3cfcc;}.cls-125{fill:#c2cac8;}.cls-126{fill:#c2cccb;}.cls-127{fill:#19201b;}.cls-128{fill:#192527;}.cls-129{fill:#1b2522;}.cls-130{fill:#d3dcda;}.cls-131{fill:#495350;}.cls-132{fill:#0e1615;}.cls-133{fill:#1a1a17;}.cls-134{fill:#3d2f21;}.cls-135{fill:#281f15;}.cls-136{fill:#ad938d;}.cls-137{fill:#1c1c15;}.cls-138{fill:#3c3b29;}.cls-139{fill:#251d17;}.cls-140{fill:#ebdbbb;}.cls-141{fill:#fbf2b1;}.cls-142{fill:#2c2a1c;}.cls-143{fill:#18120e;}.cls-144{fill:#cf9559;}.cls-145{fill:#241b12;}.cls-146{fill:#fef3d1;}.cls-147{fill:#192218;}.cls-148{fill:#191a13;}.cls-149{fill:#1c1816;}.cls-150{fill:#1b1a15;}.cls-151{fill:#b5aba8;}.cls-152{fill:#666979;}.cls-153{fill:#4c5466;}.cls-154{fill:#121114;}.cls-155{fill:#56585f;}.cls-156{fill:#45423f;}.cls-157{fill:#211f19;}.cls-158{fill:#171812;}.cls-159{fill:#bab4ae;}.cls-160{fill:#3c411d;}.cls-161{fill:#6a7687;}.cls-162{fill:#090c10;}.cls-163{fill:#15191c;}.cls-164{fill:#0c121a;}.cls-165{fill:#83919f;}.cls-166{fill:#1a1e20;}.cls-167{fill:#1a1f21;}.cls-168{fill:#212527;}.cls-169{fill:#8a705e;}.cls-170{fill:#101213;}.cls-171{fill:#151819;}.cls-172{fill:#282d30;}.cls-173{fill:#15181b;}.cls-174{fill:#131d17;}.cls-175{fill:#0b0e10;}.cls-176{fill:#101614;}.cls-177{fill:#0d1313;}.cls-178{fill:#9fa7ae;}.cls-179{fill:#9da4ad;}.cls-180{fill:#9ea4a8;}.cls-181{fill:#0c1114;}.cls-182{fill:#b4b3b5;}.cls-183{fill:#111314;}.cls-184{fill:#0e0d0f;}.cls-185{fill:#0d1211;}.cls-186{fill:#949fab;}.cls-187{fill:#080b0e;}.cls-188{fill:#0f1315;}.cls-189{fill:#a2acb3;}.cls-190{fill:#0e111b;}.cls-191{fill:#0e1112;}.cls-192{fill:#141618;}.cls-193{fill:#0c0e10;}.cls-194{fill:#0f1011;}.cls-195{fill:#0e1011;}.cls-196{fill:#0c0e0f;}.cls-197{fill:#505d23;}.cls-198{fill:#3e3c1c;}.cls-199{fill:#1a1f15;}.cls-200{fill:#181c16;}.cls-201{fill:#050607;}.cls-202{fill:#050708;}.cls-203{fill:#07090b;}.cls-204{fill:#070809;}.cls-205{fill:#060808;}.cls-206{fill:#101311;}.cls-207{fill:#1b1c14;}.cls-208{fill:#1f2019;}.cls-209{fill:#1a1a15;}.cls-210{fill:#1a1a18;}.cls-211{fill:#1f211a;}.cls-212{fill:#2f323c;}.cls-213{fill:#2f353d;}.cls-214{fill:#2e3640;}.cls-215{fill:#1b1e1b;}.cls-216{fill:#171818;}.cls-217{fill:#1b1b19;}.cls-218{fill:#191915;}.cls-219{fill:#121311;}.cls-220{fill:#0c0e0d;}.cls-221{fill:#181917;}.cls-222{fill:#181816;}.cls-223{fill:#101211;}.cls-224{fill:#292a2b;}.cls-225{fill:#141414;}.cls-226{fill:#0f1210;}.cls-227{fill:#111110;}.cls-228{fill:#161715;}.cls-229{fill:#191916;}.cls-230{fill:#1a1a1a;}.cls-231{fill:#1b1c1d;}.cls-232{fill:#212120;}.cls-233{fill:#272a29;}.cls-234{fill:#191919;}.cls-235{fill:#131314;}.cls-236{fill:#1c1c1c;}.cls-237{fill:#211f1f;}.cls-238{fill:#302e2f;}.cls-239{fill:#1f1c1b;}.cls-240{fill:#2a1e1f;}.cls-241{fill:#272121;}.cls-242{fill:#101112;}.cls-243{fill:#121110;}.cls-244{fill:#111011;}.cls-245{fill:#161415;}.cls-246{fill:#0d0d0e;}.cls-247{fill:#0a0b0d;}.cls-248{fill:#0a0b0b;}.cls-249{fill:#080a0a;}.cls-250{fill:#090b0c;}.cls-251{fill:#090a0b;}.cls-252{fill:#1b1918;}.cls-253{fill:#3a221d;}.cls-254{fill:#33241f;}.cls-255{fill:#2c211f;}.cls-256{fill:#40241c;}.cls-257{fill:#5b2317;}.cls-258{fill:#46211a;}.cls-259{fill:#43261c;}.cls-260{fill:#3a231f;}.cls-261{fill:#251c1d;}.cls-262{fill:#231b1a;}.cls-263{fill:#201b1a;}.cls-264{fill:#2a1c1c;}.cls-265{fill:#30201e;}.cls-266{fill:#43231e;}.cls-267{fill:#512119;}.cls-268{fill:#271a18;}.cls-269{fill:#222f1c;}.cls-270{fill:#23331c;}.cls-271{fill:#192117;}.cls-272{fill:#30401e;}.cls-273{fill:#313e1e;}.cls-274{fill:#2e351c;}.cls-275{fill:#232418;}.cls-276{fill:#394a27;}.cls-277{fill:#585b6a;}.cls-278{fill:#685265;}.cls-279{fill:#192719;}.cls-280{fill:#23331b;}.cls-281{fill:#252b1a;}.cls-282{fill:#202417;}.cls-283{fill:#1f2e1c;}.cls-284{fill:#182217;}.cls-285{fill:#272417;}.cls-286{fill:#362a17;}.cls-287{fill:#29371d;}.cls-288{fill:#3a381d;}.cls-289{fill:#1d2919;}.cls-290{fill:#695054;}.cls-291{fill:#2f361d;}.cls-292{fill:#1a1c14;}.cls-293{fill:#333c1d;}.cls-294{fill:#34351c;}.cls-295{fill:#200a0b;}.cls-296{fill:#27241c;}.cls-297{fill:#2b241b;}.cls-298{fill:#2e211b;}.cls-299{fill:#39221a;}.cls-300{fill:#e96514;}.cls-301{fill:#e7620d;}.cls-302{fill:#302116;}.cls-303{fill:#44461d;}.cls-304{fill:#1b1811;}.cls-305{fill:#372a1b;}.cls-306{fill:#2e1b11;}.cls-307{fill:#4b411c;}.cls-308{fill:#462118;}.cls-309{fill:#362114;}.cls-310{fill:#2d1d13;}.cls-311{fill:#372316;}.cls-312{fill:#412016;}.cls-313{fill:#502016;}.cls-314{fill:#392315;}.cls-315{fill:#ef7821;}.cls-316{fill:#f8e829;}.cls-317{fill:#721d0f;}.cls-318{fill:#631b15;}.cls-319{fill:#da5a16;}.cls-320{fill:#72291a;}.cls-321{fill:#e25a14;}.cls-322{fill:#cb5219;}.cls-323{fill:#8c2e14;}.cls-324{fill:#3b1f1c;}.cls-325{fill:#463d3a;}.cls-326{fill:#342a24;}.cls-327{fill:#d65118;}.cls-328{fill:#551e16;}.cls-329{fill:#46271e;}.cls-330{fill:#66281a;}.cls-331{fill:#ae411e;}.cls-332{fill:#f0e51b;}.cls-333{fill:#4d281b;}.cls-334{fill:#51261a;}.cls-335{fill:#6b2814;}.cls-336{fill:#933116;}.cls-337{fill:#8a351e;}.cls-338{fill:#d13f17;}.cls-339{fill:#f0e519;}.cls-340{fill:#e96512;}.cls-341{fill:#f1851f;}.cls-342{fill:#ed711a;}.cls-343{fill:#f08322;}.cls-344{fill:#db5416;}.cls-345{fill:#f18b21;}.cls-346{fill:#df5819;}.cls-347{fill:#231d1c;}.cls-348{fill:#1f201e;}.cls-349{fill:#2a1b1a;}.cls-350{fill:#f0851a;}.cls-351{fill:#fbde1e;}.cls-352{fill:#f4971e;}.cls-353{fill:#e75f12;}.cls-354{fill:#ee751f;}.cls-355{fill:#f3e844;}.cls-356{fill:#f49629;}.cls-357{fill:#f6a123;}.cls-358{fill:#ef7b23;}.cls-359{fill:#f18429;}.cls-360{fill:#f5a71a;}.cls-361{fill:#f8b11e;}.cls-362{fill:#f0e518;}.cls-363{fill:#fdc719;}.cls-364{fill:#f0e634;}.cls-365{fill:#fcc21c;}.cls-366{fill:#b34318;}.cls-367{fill:#4a2015;}.cls-368{fill:#452113;}.cls-369{fill:#2f160f;}.cls-370{fill:#982f16;}.cls-371{fill:#d5593c;}.cls-372{fill:#94382d;}.cls-373{fill:#6d1c12;}.cls-374{fill:#461f16;}.cls-375{fill:#7b2a16;}.cls-376{fill:#9e2f16;}.cls-377{fill:#f6b018;}.cls-378{fill:#fbc41c;}.cls-379{fill:#fdcd1a;}.cls-380{fill:#fbc61b;}.cls-381{fill:#f7a41b;}.cls-382{fill:#e05415;}.cls-383{fill:#fbbd1e;}.cls-384{fill:#f7a520;}.cls-385{fill:#f0871c;}.cls-386{fill:#f49921;}.cls-387{fill:#682814;}.cls-388{fill:#4f2217;}.cls-389{fill:#e05c14;}.cls-390{fill:#391b17;}.cls-391{fill:#ee751d;}.cls-392{fill:#fdd81b;}.cls-393{fill:#f18c1f;}.cls-394{fill:#f1e525;}.cls-395{fill:#fabb1c;}.cls-396{fill:#f6e82a;}.cls-397{fill:#f0e51a;}.cls-398{fill:#ad2b18;}.cls-399{fill:#f0e524;}.cls-400{fill:#551715;}.cls-401{fill:#561b14;}.cls-402{fill:#e6401d;}.cls-403{fill:#6f5756;}.cls-404{fill:#35130f;}.cls-405{fill:#723838;}.cls-406{fill:#421311;}.cls-407{fill:#521812;}.cls-408{fill:#841b15;}.cls-409{fill:#ef7e1c;}.cls-410{fill:#f7f2b0;}.cls-411{fill:#9b3b2b;}.cls-412{fill:#a3361d;}.cls-413{fill:#fbbf1c;}.cls-414{fill:#771614;}.cls-415{fill:#280f0f;}.cls-416{fill:#dc4717;}.cls-417{fill:#ee721a;}.cls-418{fill:#faf8d5;}.cls-419{fill:#f6a41d;}.cls-420{fill:#d02d1c;}.cls-421{fill:#f39532;}.cls-422{fill:#fed320;}.cls-423{fill:#853c29;}.cls-424{fill:#803f31;}.cls-425{fill:#903d2c;}.cls-426{fill:#8c3a2d;}.cls-427{fill:#993c29;}.cls-428{fill:#703429;}.cls-429{fill:#8d3729;}.cls-430{fill:#381310;}.cls-431{fill:#411510;}.cls-432{fill:#391111;}.cls-433{fill:#421411;}.cls-434{fill:#531913;}.cls-435{fill:#491512;}.cls-436{fill:#160e0b;}.cls-437{fill:#755854;}.cls-438{fill:#3d1e12;}.cls-439{fill:#341610;}.cls-440{fill:#37110f;}.cls-441{fill:#551817;}.cls-442{fill:#4b2932;}.cls-443{fill:#3e2615;}.cls-444{fill:#292617;}.cls-445{fill:#2a2918;}.cls-446{fill:#121611;}.cls-447{fill:#332114;}.cls-448{fill:#252216;}.cls-449{fill:#3f1811;}.cls-450{fill:#1e100b;}.cls-451{fill:none;stroke:#1d1d1b;stroke-miterlimit:10;}.cls-452{fill:#0b090a;}.cls-453{fill:#35140f;}.cls-454{fill:#652c1b;}.cls-455{fill:#642215;}.cls-456{fill:#3a1112;}.cls-457{fill:#3a1113;}.cls-458{fill:#503113;}.cls-459{fill:#6c2113;}.cls-460{fill:#461510;}.cls-461{fill:#240c0d;}.cls-462{fill:#340f10;}.cls-463{fill:#2e1011;}.cls-464{fill:#3e1213;}.cls-465{fill:#6c2915;}.cls-466{fill:#872514;}.cls-467{fill:#a71a17;}.cls-468{fill:#961916;}.cls-469{fill:#3d1311;}.cls-470{fill:#6a1511;}.cls-471{fill:#ac2d18;}.cls-472{fill:#f4e733;}.cls-473{fill:#f1e627;}.cls-474{fill:#fbbe1b;}.cls-475{fill:#b32e19;}.cls-476{fill:#f59c21;}.cls-477{fill:#f2e74a;}.cls-478{fill:#fdca1b;}.cls-479{fill:#bb2619;}.cls-480{fill:#fae733;}.cls-481{fill:#fed127;}.cls-482{fill:#63140f;}.cls-483{fill:#ad1919;}.cls-484{fill:#ad1d19;}.cls-485{fill:#e74518;}.cls-486{fill:#e8562d;}.cls-487{fill:#531712;}.cls-488{fill:#712116;}.cls-489{fill:#962815;}.cls-490{fill:#cd4c19;}.cls-491{fill:#fcda1e;}.cls-492{fill:#f9e827;}.cls-493{fill:#cd3118;}.cls-494{fill:#f3e732;}.cls-495{fill:#f7ed76;}.cls-496{fill:#c75228;}.cls-497{fill:#e8581b;}.cls-498{fill:#fbdd22;}.cls-499{fill:#fae11e;}.cls-500{fill:#fab41f;}.cls-501{fill:#fab722;}.cls-502{fill:#f0e63b;}.cls-503{fill:#f7ab20;}.cls-504{fill:#fabb21;}.cls-505{fill:#fae41e;}.cls-506{fill:#562419;}.cls-507{fill:#7c2514;}.cls-508{fill:#572818;}.cls-509{fill:#932215;}.cls-510{fill:#5c251c;}.cls-511{fill:#57241f;}.cls-512{fill:#5b2f26;}.cls-513{fill:#512222;}.cls-514{fill:#3c1213;}.cls-515{fill:#58201b;}.cls-516{fill:#691d10;}.cls-517{fill:#681c13;}.cls-518{fill:#d65423;}.cls-519{fill:#a4a9b1;}.cls-520{fill:#090f0d;}.cls-521{fill:#0a100e;}.cls-522{fill:#060809;}.cls-523{fill:#271c1a;}.cls-524{fill:#181616;}.cls-525{fill:#0d0e0e;}.cls-526{fill:#131010;}.cls-527{fill:#2d1b15;}.cls-528{fill:#381210;}.cls-529{fill:#5a1d13;}.cls-530{fill:#2c0f11;}.cls-531{fill:#601611;}.cls-532{fill:#5b251e;}.cls-533{fill:#251310;}.cls-534{fill:#2c1310;}.cls-535{fill:#552513;}.cls-536{fill:#3e2012;}.cls-537{fill:#4f2213;}.cls-538{fill:#422013;}.cls-539{fill:#511f14;}.cls-540{fill:#f2922b;}.cls-541{fill:#080b0b;}.cls-542{fill:#121410;}.cls-543{fill:#090a0a;}.cls-544{fill:#0a090a;}.cls-545{fill:#0e0b0b;}.cls-546{fill:#0d0b0b;}.cls-547{fill:#080809;}.cls-548{fill:#21100c;}.cls-549{fill:#432013;}.cls-550{fill:#270f0f;}.cls-551{fill:#0e0a0a;}.cls-552{fill:#140b0a;}.cls-553{fill:#060707;}.cls-554{fill:#1d140f;}.cls-555{fill:#1a1710;}.cls-556{fill:#0c0a0a;}.cls-557{fill:#0d0a0a;}.cls-558{fill:#1f120d;}.cls-559{fill:#281919;}.cls-560{fill:#17110c;}.cls-561{fill:#090708;}.cls-562{fill:#34201e;}.cls-563{fill:#1c0e0a;}.cls-564{fill:#432113;}.cls-565{fill:#3e1b10;}.cls-566{fill:#29150e;}.cls-567{fill:#391d11;}.cls-568{fill:#5b2814;}.cls-569{fill:#3a1e11;}.cls-570{fill:#23170f;}.cls-571{fill:#3f2113;}.cls-572{fill:#2b120d;}.cls-573{fill:#1e0f0a;}.cls-574{fill:#4e2e14;}.cls-575{fill:#2c1c12;}.cls-576{fill:#251d13;}.cls-577{fill:#191610;}.cls-578{fill:#271b28;}.cls-579{fill:#48371e;}.cls-580{fill:#090808;}.cls-581{fill:#13100d;}.cls-582{fill:#1c1610;}.cls-583{fill:#562713;}.cls-584{fill:#68321d;}.cls-585{fill:#4d191b;}.cls-586{fill:#3f1311;}.cls-587{fill:#36100f;}.cls-588{fill:#481111;}.cls-589{fill:#4d1110;}.cls-590{fill:#611b0f;}.cls-591{fill:#431d11;}.cls-592{fill:#604015;}.cls-593{fill:#291a10;}.cls-594{fill:#1d0d09;}.cls-595{fill:#38331a;}.cls-596{fill:#4d2d15;}.cls-597{fill:#270e0f;}.cls-598{fill:#4c110f;}.cls-599{fill:#5d140e;}.cls-600{fill:#9b4545;}.cls-601{fill:#220b0b;}.cls-602{fill:#531d16;}.cls-603{fill:#822513;}.cls-604{fill:#682115;}.cls-605{fill:#652c2c;}.cls-606{fill:#391112;}.cls-607{fill:#71302c;}.cls-608{fill:#88524d;}.cls-609{fill:#71342e;}.cls-610{fill:#2e1010;}.cls-611{fill:#6a221e;}.cls-612{fill:#511213;}.cls-613{fill:#4b2313;}.cls-614{fill:#542714;}.cls-615{fill:#652d16;}.cls-616{fill:#481210;}.cls-617{fill:#6d382d;}.cls-618{fill:#230c0d;}.cls-619{fill:#502914;}</style></defs><title>fire</title><g id="Layer_1" data-name="Layer 1"><image width="4608" height="3456" transform="translate(595.66 0) rotate(90) scale(0.17)" xlink:href="../../low%20poly/IMG_20200519_212547.jpg"/></g><g id="Layer_2" data-name="Layer 2"><polygon class="cls-1" points="0.39 92.36 97.06 0 0.39 0 0.39 92.36"/><polygon class="cls-2" points="0.39 92.36 108.94 142.94 97.06 0 0.39 92.36"/><polygon class="cls-3" points="108.94 142.94 199.77 95.97 97.06 0 108.94 142.94"/><polygon class="cls-4" points="199.77 95.97 253.45 95.97 269.97 26.81 199.77 95.97"/><polygon class="cls-5" points="269.97 26.81 259.13 0 97.06 0 269.97 26.81"/><polygon class="cls-6" points="269.97 26.81 199.77 95.97 97.06 0 269.97 26.81"/><polygon class="cls-7" points="108.94 142.94 0.39 129.52 0.39 92.36 108.94 142.94"/><polygon class="cls-8" points="108.94 142.94 188.94 158.68 199.77 95.97 108.94 142.94"/><polygon class="cls-9" points="188.94 158.68 266.87 148.87 199.77 95.97 188.94 158.68"/><polygon class="cls-10" points="266.87 148.87 253.45 95.97 199.77 95.97 266.87 148.87"/><polygon class="cls-11" points="188.94 158.68 148.42 188.62 262.36 225 188.94 158.68"/><polygon class="cls-12" points="148.42 188.62 11.9 182.81 140.81 164.23 148.42 188.62"/><polygon class="cls-13" points="140.81 164.23 188.94 158.68 148.42 188.62 140.81 164.23"/><polygon class="cls-14" points="108.94 142.94 11.9 182.81 140.81 164.23 108.94 142.94"/><polygon class="cls-15" points="108.94 142.94 188.94 158.68 140.81 164.23 108.94 142.94"/><polygon class="cls-16" points="11.9 182.81 0.39 129.52 108.94 142.94 11.9 182.81"/><polygon class="cls-17" points="11.9 182.81 0.39 129.52 0.39 198.1 11.9 182.81"/><polygon class="cls-18" points="0.39 198.1 78.87 210.29 11.9 182.81 0.39 198.1"/><polygon class="cls-19" points="78.87 210.29 148.42 188.62 11.9 182.81 78.87 210.29"/><polygon class="cls-20" points="78.87 210.29 148.42 188.62 262.36 225 78.87 210.29"/><polygon class="cls-21" points="262.36 225 266.87 148.87 188.94 158.68 262.36 225"/><polygon class="cls-22" points="269.97 26.81 359.13 0 259.13 0 269.97 26.81"/><polygon class="cls-23" points="269.97 26.81 310.74 71.47 359.13 0 269.97 26.81"/><polygon class="cls-24" points="310.74 71.47 253.45 95.97 269.97 26.81 310.74 71.47"/><polygon class="cls-25" points="529.07 114.29 570.87 0 418.74 0 529.07 114.29"/><polygon class="cls-26" points="359.13 0 418.74 0 359.13 77.52 359.13 0"/><polygon class="cls-27" points="359.13 0 310.74 71.47 359.13 77.52 359.13 0"/><polygon class="cls-28" points="266.87 148.87 310.74 71.47 253.45 95.97 266.87 148.87"/><polygon class="cls-29" points="0.39 198.1 0.39 236.62 78.87 210.29 0.39 198.1"/><polygon class="cls-30" points="0.39 236.62 39.63 246.16 78.87 210.29 0.39 236.62"/><polygon class="cls-31" points="47.12 239.32 62.74 260.87 78.87 210.29 47.12 239.32"/><polygon class="cls-32" points="62.74 260.87 170.61 217.65 78.87 210.29 62.74 260.87"/><polygon class="cls-33" points="170.61 217.65 201.84 258.04 262.36 225 170.61 217.65"/><polygon class="cls-34" points="359.13 77.52 266.87 148.87 310.74 71.47 359.13 77.52"/><polygon class="cls-35" points="529.07 114.29 595.66 181.91 570.87 0 529.07 114.29"/><polygon class="cls-36" points="595.66 181.91 595.66 0 570.87 0 595.66 181.91"/><polygon class="cls-37" points="359.13 77.52 529.07 114.29 418.74 0 359.13 77.52"/><polygon class="cls-38" points="266.87 148.87 262.36 225 351.52 148.87 266.87 148.87"/><polygon class="cls-39" points="266.87 148.87 351.52 148.87 359.13 77.52 266.87 148.87"/><polygon class="cls-40" points="351.52 148.87 529.07 114.29 359.13 77.52 351.52 148.87"/><polygon class="cls-41" points="262.36 225 367.26 237.84 351.52 148.87 262.36 225"/><polygon class="cls-42" points="367.26 237.84 529.07 114.29 351.52 148.87 367.26 237.84"/><polygon class="cls-43" points="595.66 181.91 539.13 231.45 529.07 114.29 595.66 181.91"/><polygon class="cls-44" points="539.13 231.45 515.39 262.16 496.74 138.98 539.13 231.45"/><polygon class="cls-45" points="539.13 231.45 529.07 114.29 496.74 138.98 539.13 231.45"/><polygon class="cls-46" points="367.26 237.84 509.76 225 448.16 176.07 367.26 237.84"/><polygon class="cls-47" points="448.16 176.07 496.74 138.98 509.76 225 448.16 176.07"/><polygon class="cls-48" points="539.13 231.45 595.66 225 595.66 181.91 539.13 231.45"/><polygon class="cls-49" points="595.66 225 546.74 259.84 566.4 228.34 595.66 225"/><polygon class="cls-50" points="595.66 225 595.66 287.2 562.36 248.72 595.66 225"/><polygon class="cls-51" points="573.68 261.79 560.42 271.84 593.63 284.85 573.68 261.79"/><polygon class="cls-52" points="504.4 225.49 461.19 284.85 367.26 237.84 504.4 225.49"/><polygon class="cls-53" points="461.19 284.85 481.19 296.36 485.61 251.31 461.19 284.85"/><polygon class="cls-54" points="62.74 260.87 38.03 275.91 105.39 296.42 62.74 260.87"/><polygon class="cls-55" points="105.39 296.42 201.84 258.04 62.74 260.87 105.39 296.42"/><polygon class="cls-56" points="201.84 258.04 170.61 217.65 62.74 260.87 201.84 258.04"/><polygon class="cls-57" points="201.84 258.04 367.26 237.84 262.36 225 201.84 258.04"/><polygon class="cls-58" points="453.77 281.13 407.13 307.65 367.26 237.84 453.77 281.13"/><polygon class="cls-59" points="407.13 307.65 387 327.78 311.5 244.65 407.13 307.65"/><polygon class="cls-60" points="407.13 307.65 367.26 237.84 311.5 244.65 407.13 307.65"/><polygon class="cls-61" points="311.5 244.65 201.84 258.04 258.87 291.39 311.5 244.65"/><polygon class="cls-62" points="387 327.78 317.9 338.62 327.19 318.87 387 327.78"/><polygon class="cls-63" points="327.19 318.87 258.87 291.39 311.5 244.65 327.19 318.87"/><polygon class="cls-64" points="327.19 318.87 311.5 244.65 387 327.78 327.19 318.87"/><polygon class="cls-65" points="105.39 296.42 258.87 291.39 201.84 258.04 105.39 296.42"/><polygon class="cls-66" points="105.39 296.42 116.68 311.91 65.9 321.78 105.39 296.42"/><polygon class="cls-67" points="65.9 321.78 70.29 285.73 105.39 296.42 65.9 321.78"/><polygon class="cls-68" points="116.68 311.91 234.68 318.87 105.39 296.42 116.68 311.91"/><polygon class="cls-69" points="234.68 318.87 258.87 291.39 196.17 293.44 234.68 318.87"/><polygon class="cls-70" points="196.17 293.44 105.39 296.42 234.68 318.87 196.17 293.44"/><polygon class="cls-71" points="234.68 318.87 308.72 311.44 248.81 302.81 234.68 318.87"/><polygon class="cls-72" points="248.81 302.81 258.87 291.39 308.72 311.44 248.81 302.81"/><polygon class="cls-73" points="317.9 338.62 234.68 318.87 308.72 311.44 317.9 338.62"/><polygon class="cls-74" points="317.9 338.62 308.72 311.44 327.19 318.87 317.9 338.62"/><polygon class="cls-75" points="234.68 318.87 191.13 333 317.9 338.62 234.68 318.87"/><polygon class="cls-76" points="191.13 333 93.58 338.62 116.68 311.91 191.13 333"/><polygon class="cls-77" points="191.13 333 116.68 311.91 234.68 318.87 191.13 333"/><polygon class="cls-78" points="93.58 338.62 65.9 344.36 86.19 317.83 93.58 338.62"/><polygon class="cls-79" points="93.58 338.62 116.68 311.91 86.19 317.83 93.58 338.62"/><path class="cls-80" d="M85.8,341.93s-20.22,3.17-20.28,3.94,8.35,11.65,8.68,11.23Z" transform="translate(0.39 -24.09)"/><polygon class="cls-81" points="387 327.78 406.45 328.74 407.13 307.65 387 327.78"/><polygon class="cls-82" points="317.9 338.62 324.19 357.2 404.42 349.07 317.9 338.62"/><polygon class="cls-83" points="404.42 349.07 387 327.78 317.9 338.62 404.42 349.07"/><polygon class="cls-84" points="324.19 357.2 197.81 357.2 317.9 338.62 324.19 357.2"/><polygon class="cls-85" points="197.81 357.2 122.1 362.81 191.13 333 197.81 357.2"/><polygon class="cls-86" points="197.81 357.2 191.13 333 317.9 338.62 197.81 357.2"/><polygon class="cls-87" points="122.1 362.81 91.29 365.52 93.58 338.62 122.1 362.81"/><polygon class="cls-88" points="122.1 362.81 93.58 338.62 191.13 333 122.1 362.81"/><polygon class="cls-89" points="91.29 365.52 65.9 344.36 93.58 338.62 91.29 365.52"/><polygon class="cls-90" points="91.29 365.52 106.69 373 137.32 369.78 91.29 365.52"/><polygon class="cls-91" points="91.29 365.52 137.32 369.78 122.1 362.81 91.29 365.52"/><polygon class="cls-92" points="137.32 369.78 178.61 366.94 122.1 362.81 137.32 369.78"/><polygon class="cls-93" points="178.61 366.94 197.81 357.2 122.1 362.81 178.61 366.94"/><polygon class="cls-94" points="178.61 366.94 226.87 372.49 197.81 357.2 178.61 366.94"/><polygon class="cls-95" points="226.87 372.49 324.19 357.2 197.81 357.2 226.87 372.49"/><polygon class="cls-96" points="324.19 357.2 346.23 361.39 288.68 371.71 324.19 357.2"/><polygon class="cls-97" points="288.68 371.71 226.87 372.49 324.19 357.2 288.68 371.71"/><polygon class="cls-98" points="346.23 361.39 404.42 349.07 324.19 357.2 346.23 361.39"/><polygon class="cls-99" points="106.69 373 97.19 382.81 155.9 395.32 106.69 373"/><polygon class="cls-100" points="106.69 373 155.9 395.32 137.32 369.78 106.69 373"/><polygon class="cls-101" points="155.9 395.32 226.87 372.49 264.81 392.23 155.9 395.32"/><polygon class="cls-102" points="155.9 395.32 137.32 369.78 178.61 366.94 155.9 395.32"/><polygon class="cls-103" points="155.9 395.32 178.61 366.94 226.87 372.49 155.9 395.32"/><polygon class="cls-104" points="264.81 392.23 346.23 361.39 324.19 389 264.81 392.23"/><polygon class="cls-105" points="264.81 392.23 288.68 371.71 226.87 372.49 264.81 392.23"/><polygon class="cls-106" points="264.81 392.23 288.68 371.71 346.23 361.39 264.81 392.23"/><polygon class="cls-107" points="346.23 361.39 324.19 389 362.36 387.32 346.23 361.39"/><polygon class="cls-108" points="362.36 387.32 394.23 364.84 346.23 361.39 362.36 387.32"/><polygon class="cls-109" points="394.23 364.84 466.61 378.94 404.42 349.07 394.23 364.84"/><polygon class="cls-110" points="394.23 364.84 346.23 361.39 404.42 349.07 394.23 364.84"/><path class="cls-111" d="M264.42,416.32s-15.74,7.74-15.23,8.26,53.29,7.61,53.29,7.61Z" transform="translate(0.39 -24.09)"/><polygon class="cls-112" points="302.87 408.1 324.19 389 264.81 392.23 302.87 408.1"/><polygon class="cls-113" points="324.19 389 344.94 405.78 344.03 419.84 324.19 389"/><polygon class="cls-114" points="324.19 389 324.19 428.36 344.03 419.84 324.19 389"/><polygon class="cls-115" points="302.87 408.1 324.19 428.36 324.19 389 302.87 408.1"/><polygon class="cls-116" points="249.58 400.49 155.9 395.32 264.81 392.23 249.58 400.49"/><polygon class="cls-117" points="97.19 382.81 78.36 387.2 106.69 373 97.19 382.81"/><polygon class="cls-118" points="39.63 246.16 20.16 257.13 36.42 268.23 39.63 246.16"/><polygon class="cls-119" points="36.42 268.23 62.74 260.87 39.63 246.16 36.42 268.23"/><polygon class="cls-120" points="39.63 246.16 47.12 239.32 62.74 260.87 39.63 246.16"/><polygon class="cls-121" points="20.16 257.13 0.39 258.04 39.63 246.16 20.16 257.13"/><polygon class="cls-122" points="0.39 258.04 0.39 236.62 39.63 246.16 0.39 258.04"/><polygon class="cls-123" points="0.39 258.04 0.39 282.68 20.16 257.13 0.39 258.04"/><polygon class="cls-124" points="36.42 268.23 7.26 273.8 20.16 257.13 36.42 268.23"/><path class="cls-125" d="M37.65,300s-24.21-3.36-23.71-3.45L36,292.32Z" transform="translate(0.39 -24.09)"/><polygon class="cls-126" points="38.03 275.91 36.42 268.23 62.74 260.87 38.03 275.91"/><path class="cls-127" d="M0,306.77s-.87,35.47,0,35.16,39.24-7.87,39.24-7.87Z" transform="translate(0.39 -24.09)"/><polygon class="cls-128" points="0.39 282.68 39.63 309.97 38.03 275.91 0.39 282.68"/><polygon class="cls-129" points="0.39 282.68 0.39 282.68 7.26 273.8 15.2 280.01 0.39 282.68"/><polygon class="cls-130" points="14.32 272.45 7.26 273.8 15.2 280.01 14.32 272.45"/><polygon class="cls-131" points="14.32 272.45 38.03 275.91 15.2 280.01 14.32 272.45"/><polygon class="cls-132" points="39.63 309.97 70.29 285.73 38.03 275.91 39.63 309.97"/><polygon class="cls-133" points="39.63 309.97 65.9 321.78 70.29 285.73 39.63 309.97"/><polygon class="cls-134" points="65.9 344.36 65.9 321.78 74.59 333 65.9 344.36"/><polygon class="cls-135" points="78.36 387.2 65.9 344.36 91.29 365.52 78.36 387.2"/><polygon class="cls-136" points="78.36 387.2 91.29 365.52 106.69 373 78.36 387.2"/><path class="cls-137" d="M78,411.29l-18,8.13s-26.61-51.81-26-51S78,411.29,78,411.29Z" transform="translate(0.39 -24.09)"/><polygon class="cls-138" points="34.35 344.36 51.29 324.1 65.9 344.36 34.35 344.36"/><polygon class="cls-139" points="34.35 344.36 65.9 344.36 78.36 387.2 34.35 344.36"/><polygon class="cls-140" points="51.29 324.1 65.9 321.78 65.9 344.36 51.29 324.1"/><polygon class="cls-141" points="51.29 324.1 39.63 309.97 65.9 321.78 51.29 324.1"/><polygon class="cls-142" points="34.35 344.36 39.63 309.97 51.29 324.1 34.35 344.36"/><polygon class="cls-143" points="34.35 344.36 17.61 314.32 39.63 309.97 34.35 344.36"/><path class="cls-144" d="M33.74,368S19.4,373,19.62,372.58s5.62-19.78,5.62-19.78Z" transform="translate(0.39 -24.09)"/><polygon class="cls-145" points="20.01 348.49 0.39 338.62 25.63 328.7 20.01 348.49"/><polygon class="cls-146" points="0.39 338.62 0.39 317.83 25.63 328.7 0.39 338.62"/><polygon class="cls-147" points="25.63 328.7 17.61 314.32 0.39 317.83 25.63 328.7"/><polygon class="cls-148" points="20.01 348.49 0.39 380.81 0.39 338.62 20.01 348.49"/><polygon class="cls-149" points="20.01 348.49 39.63 379.36 34.13 343.95 20.01 348.49"/><path class="cls-150" d="M19.62,372.58l-10.34,17s30.39,14.51,30,13.84Z" transform="translate(0.39 -24.09)"/><polygon class="cls-151" points="39.63 379.36 60.39 395.32 34.35 344.36 39.63 379.36"/><polygon class="cls-152" points="155.9 395.32 149.81 400.49 204.19 404.71 155.9 395.32"/><polygon class="cls-153" points="204.19 404.71 216.28 398.65 155.9 395.32 204.19 404.71"/><polygon class="cls-154" points="149.81 400.49 127.16 417.1 126.55 389.07 149.81 400.49"/><polygon class="cls-155" points="149.81 400.49 155.9 395.32 126.55 389.07 149.81 400.49"/><polygon class="cls-156" points="127.16 417.1 97.19 382.81 126.55 389.07 127.16 417.1"/><polygon class="cls-157" points="78.36 387.2 117.06 405.54 97.19 382.81 78.36 387.2"/><path class="cls-158" d="M39.24,403.45s-10,17-9.81,17.13S60,419.42,60,419.42Z" transform="translate(0.39 -24.09)"/><polygon class="cls-159" points="29.64 396.39 9.67 365.52 39.63 379.36 29.64 396.39"/><polygon class="cls-160" points="29.64 396.39 0.39 380.81 9.67 365.52 29.64 396.39"/><polygon class="cls-161" points="546.74 259.84 539.13 231.45 566.4 228.34 546.74 259.84"/><polygon class="cls-162" points="546.74 259.84 515.39 262.16 539.13 231.45 546.74 259.84"/><path class="cls-163" d="M515,286.26s-9.06,19.64-9.26,19.74-20.52-30.6-20.52-30.6Z" transform="translate(0.39 -24.09)"/><path class="cls-164" d="M515,286.26c0-.67-5.63-37.16-5.63-37.16l-24.15,26.3Z" transform="translate(0.39 -24.09)"/><polygon class="cls-165" points="504.4 225.49 485.61 251.31 509.76 225 504.4 225.49"/><polygon class="cls-166" points="506.13 281.91 481.19 296.36 485.61 251.31 506.13 281.91"/><polygon class="cls-167" points="407.13 307.65 473.4 330.49 453.77 281.13 407.13 307.65"/><polygon class="cls-168" points="406.45 328.74 473.4 330.49 407.13 307.65 406.45 328.74"/><polygon class="cls-169" points="404.42 349.07 406.45 328.74 387 327.78 404.42 349.07"/><path class="cls-170" d="M404,373.16,466.23,403s55.09-25,54.61-25S404,373.16,404,373.16Z" transform="translate(0.39 -24.09)"/><polygon class="cls-171" points="404.42 349.07 406.45 328.74 521.23 353.91 404.42 349.07"/><polygon class="cls-170" points="473.4 330.49 534.29 323.13 481.19 296.36 473.4 330.49"/><polygon class="cls-172" points="473.4 330.49 453.77 281.13 481.19 296.36 473.4 330.49"/><polygon class="cls-173" points="521.23 353.91 473.4 330.49 406.45 328.74 521.23 353.91"/><path class="cls-174" d="M520.84,378s31.84,22.58,32.35,22.58,33.42-41.93,33.42-41.93Z" transform="translate(0.39 -24.09)"/><polygon class="cls-175" points="521.23 353.91 534.29 323.13 473.4 330.49 521.23 353.91"/><polygon class="cls-176" points="534.29 323.13 580.68 284.85 587 334.55 534.29 323.13"/><polygon class="cls-177" points="534.29 323.13 521.23 353.91 587 334.55 534.29 323.13"/><path class="cls-178" d="M560,295.94s5,13.16,5.16,13.54,15.1-.54,15.1-.54Z" transform="translate(0.39 -24.09)"/><polygon class="cls-179" points="580.68 284.85 593.63 284.85 560.42 271.84 580.68 284.85"/><polygon class="cls-180" points="580.68 284.85 587.97 301.07 593.63 284.85 580.68 284.85"/><polygon class="cls-181" points="587.97 301.07 593.63 284.85 595.66 287.2 587.97 301.07"/><polygon class="cls-182" points="595.66 287.2 595.66 327.32 587.97 301.07 595.66 287.2"/><polygon class="cls-183" points="587.97 301.07 583.39 306.2 580.68 284.85 587.97 301.07"/><polygon class="cls-184" points="587.97 301.07 583.39 306.2 587 334.55 587.97 301.07"/><polygon class="cls-185" points="587 334.55 595.66 327.32 587.97 301.07 587 334.55"/><polygon class="cls-186" points="560.42 271.84 546.74 259.84 562.36 248.72 560.42 271.84"/><polygon class="cls-187" points="560.42 271.84 573.68 261.79 562.36 248.72 560.42 271.84"/><polygon class="cls-188" points="546.74 259.84 506.13 281.91 515.39 262.16 546.74 259.84"/><path class="cls-189" d="M546.35,283.94s-14.45,26.58-13.29,26.71,19.79-.46,19.32-1.07S546.35,283.94,546.35,283.94Z" transform="translate(0.39 -24.09)"/><polygon class="cls-190" points="552.76 285.48 560.42 271.84 546.74 259.84 552.76 285.48"/><polygon class="cls-191" points="533.45 286.55 506.13 281.91 546.74 259.84 533.45 286.55"/><polygon class="cls-170" points="533.45 286.55 506.13 308.93 506.13 281.91 533.45 286.55"/><polygon class="cls-192" points="506.13 308.36 481.19 296.36 506.13 281.91 506.13 308.36"/><polygon class="cls-193" points="533.45 286.55 534.29 323.13 506.13 308.93 533.45 286.55"/><polygon class="cls-194" points="533.45 286.55 552.76 285.48 534.29 323.13 533.45 286.55"/><polygon class="cls-195" points="552.76 285.48 565.58 285.39 534.29 323.13 552.76 285.48"/><polygon class="cls-196" points="565.58 285.39 534.29 323.13 580.68 284.85 565.58 285.39"/><polygon class="cls-197" points="29.64 396.39 0.39 428.71 0.39 380.81 29.64 396.39"/><polygon class="cls-198" points="0.39 428.71 35.32 426.39 29.64 396.39 0.39 428.71"/><polygon class="cls-199" points="35.32 426.39 79.26 419.42 29.64 396.39 35.32 426.39"/><polygon class="cls-200" points="0.39 428.71 19.16 442.36 35.32 426.39 0.39 428.71"/><polygon class="cls-201" points="19.16 442.36 29.64 451.84 0.39 449.62 19.16 442.36"/><polygon class="cls-202" points="19.16 442.36 0.39 428.71 0.39 449.62 19.16 442.36"/><polygon class="cls-203" points="19.16 442.36 29.64 451.84 35.32 426.39 19.16 442.36"/><polygon class="cls-204" points="29.64 451.84 85.45 457.94 35.32 426.39 29.64 451.84"/><polygon class="cls-205" points="85.45 457.94 122.13 424.65 35.32 426.39 85.45 457.94"/><polygon class="cls-206" points="122.13 424.65 79.26 419.42 35.32 426.39 122.13 424.65"/><polygon class="cls-207" points="60.39 395.32 79.26 419.42 29.64 396.39 60.39 395.32"/><polygon class="cls-208" points="60.39 395.32 79.26 419.42 78.36 387.2 60.39 395.32"/><polygon class="cls-209" points="79.26 419.42 122.13 424.65 78.36 387.2 79.26 419.42"/><polygon class="cls-210" points="127.16 417.1 122.13 424.65 117.06 405.54 127.16 417.1"/><polygon class="cls-211" points="122.13 424.65 78.36 387.2 117.06 405.54 122.13 424.65"/><polygon class="cls-212" points="157.73 401.1 166.23 414.36 181.71 402.96 157.73 401.1"/><polygon class="cls-213" points="181.71 402.96 192.55 409.07 204.19 404.71 181.71 402.96"/><polygon class="cls-214" points="175.84 407.29 192.55 409.07 181.71 402.96 175.84 407.29"/><polygon class="cls-215" points="166.23 414.36 148.81 410.55 157.73 401.1 166.23 414.36"/><polygon class="cls-216" points="148.81 410.55 149.81 400.49 157.73 401.1 148.81 410.55"/><polygon class="cls-217" points="127.16 417.1 148.81 410.55 149.81 400.49 127.16 417.1"/><polygon class="cls-218" points="122.11 424.94 171 443.91 127.16 417.1 122.11 424.94"/><polygon class="cls-219" points="148.81 410.55 171 443.91 127.16 417.1 148.81 410.55"/><polygon class="cls-220" points="171 443.91 192.95 431.07 159.34 426.39 171 443.91"/><polygon class="cls-221" points="166.23 414.36 176.15 428.73 159.34 426.39 166.23 414.36"/><polygon class="cls-222" points="148.81 410.55 159.34 426.39 166.23 414.36 148.81 410.55"/><polygon class="cls-223" points="166.23 414.36 176.15 428.73 192.95 431.07 166.23 414.36"/><polygon class="cls-224" points="166.23 414.36 192.55 409.07 175.84 407.29 166.23 414.36"/><polygon class="cls-225" points="192.95 431.07 192.55 409.07 166.23 414.36 192.95 431.07"/><polygon class="cls-226" points="192.95 431.07 226.29 440.87 171 443.91 192.95 431.07"/><polygon class="cls-227" points="192.55 409.07 226.29 440.87 192.95 431.07 192.55 409.07"/><polygon class="cls-228" points="192.55 409.07 204.19 404.71 226.29 440.87 192.55 409.07"/><polygon class="cls-229" points="204.19 404.71 216.28 398.65 226.29 440.87 204.19 404.71"/><polygon class="cls-230" points="219.29 411.35 251.65 410.55 216.28 398.65 219.29 411.35"/><polygon class="cls-231" points="251.65 410.55 249.58 400.49 216.28 398.65 251.65 410.55"/><polygon class="cls-232" points="251.65 410.55 279.64 419.76 269.35 403.5 251.65 410.55"/><polygon class="cls-233" points="251.65 410.55 249.58 400.49 269.35 403.5 251.65 410.55"/><polygon class="cls-234" points="219.29 411.35 226.29 440.87 251.65 410.55 219.29 411.35"/><polygon class="cls-235" points="226.29 440.87 247.39 443.2 240.75 423.58 226.29 440.87"/><polygon class="cls-234" points="247.39 443.2 279.64 431.84 240.75 423.58 247.39 443.2"/><polygon class="cls-236" points="279.64 431.84 279.64 419.76 240.75 423.58 279.64 431.84"/><polygon class="cls-237" points="279.64 419.76 251.65 410.55 240.75 423.58 279.64 419.76"/><polygon class="cls-238" points="279.64 419.76 302.87 408.1 269.35 403.5 279.64 419.76"/><polygon class="cls-239" points="279.64 419.76 279.64 431.84 294.5 424.1 279.64 419.76"/><polygon class="cls-240" points="294.5 424.1 318.34 422.79 302.87 408.1 294.5 424.1"/><polygon class="cls-241" points="294.5 424.1 279.64 419.76 302.87 408.1 294.5 424.1"/><polygon class="cls-242" points="226.29 440.87 232.94 469.78 247.39 443.2 226.29 440.87"/><polygon class="cls-243" points="232.94 469.78 260.2 476.36 247.39 443.2 232.94 469.78"/><polygon class="cls-244" points="260.2 476.36 280.42 448.23 247.39 443.2 260.2 476.36"/><polygon class="cls-245" points="280.42 448.23 279.64 431.84 247.39 443.2 280.42 448.23"/><path class="cls-246" d="M232.55,493.87s-29.81-1.55-29.42-1.55S225.9,465,225.9,465Z" transform="translate(0.39 -24.09)"/><polygon class="cls-247" points="203.13 468.23 166.23 466.55 171 443.91 203.13 468.23"/><polygon class="cls-248" points="203.13 468.23 226.29 440.87 171 443.91 203.13 468.23"/><polygon class="cls-249" points="171 443.91 127.16 453.26 122.11 424.94 171 443.91"/><polygon class="cls-250" points="166.23 466.55 127.16 453.26 171 443.91 166.23 466.55"/><polygon class="cls-251" points="127.16 453.26 85.45 457.94 122.11 424.94 127.16 453.26"/><polygon class="cls-251" points="166.23 466.55 85.45 457.94 127.16 453.26 166.23 466.55"/><polygon class="cls-252" points="280.42 448.23 294.5 424.1 279.64 431.84 280.42 448.23"/><path class="cls-253" d="M323.81,452.45s-16.07,7.52-15.68,7.13S318,446.89,318,446.89Z" transform="translate(0.39 -24.09)"/><polygon class="cls-254" points="308.52 435.49 294.5 424.1 318.34 422.79 308.52 435.49"/><polygon class="cls-255" points="308.52 435.49 280.42 448.23 294.5 424.1 308.52 435.49"/><polygon class="cls-256" points="324.19 428.36 321.58 451.55 308.52 435.49 324.19 428.36"/><polygon class="cls-257" points="321.58 451.55 330.39 455.32 321.58 464.71 321.58 451.55"/><polygon class="cls-258" points="321.58 464.71 309.29 458.13 321.58 451.55 321.58 464.71"/><polygon class="cls-259" points="309.29 458.13 308.52 435.49 321.58 451.55 309.29 458.13"/><polygon class="cls-260" points="309.29 458.13 291.26 453.87 308.52 435.49 309.29 458.13"/><polygon class="cls-261" points="291.26 453.87 280.42 448.23 308.52 435.49 291.26 453.87"/><polygon class="cls-262" points="260.2 476.36 288.77 468.23 280.42 448.23 260.2 476.36"/><polygon class="cls-263" points="288.77 468.23 291.26 453.87 280.42 448.23 288.77 468.23"/><polygon class="cls-264" points="288.77 468.23 309.29 458.13 291.26 453.87 288.77 468.23"/><polygon class="cls-265" points="288.77 468.23 303.39 478.36 309.29 458.13 288.77 468.23"/><polygon class="cls-266" points="303.39 478.36 321.58 464.71 309.29 458.13 303.39 478.36"/><polygon class="cls-267" points="303.39 478.36 325.98 480.49 321.58 464.71 303.39 478.36"/><polygon class="cls-268" points="302.87 478.36 260.2 476.36 288.77 468.23 302.87 478.36"/><polygon class="cls-269" points="85.45 457.94 72.48 495.78 0.39 449.62 85.45 457.94"/><polygon class="cls-270" points="72.48 495.78 0.39 532.55 0.39 449.62 72.48 495.78"/><polygon class="cls-271" points="72.48 495.78 177 493.45 85.45 457.94 72.48 495.78"/><polygon class="cls-272" points="177 493.45 203.13 468.23 166.23 466.55 177 493.45"/><polygon class="cls-273" points="177 493.45 166.23 466.55 85.45 457.94 177 493.45"/><polygon class="cls-274" points="177 493.45 230.03 497.91 203.13 468.23 177 493.45"/><polygon class="cls-275" points="230.03 497.91 232.94 469.78 203.13 468.23 230.03 497.91"/><polygon class="cls-276" points="0.39 532.55 166.23 532.55 72.48 495.78 0.39 532.55"/><polygon class="cls-277" points="79.26 532.55 42.92 547.45 57.54 567.2 79.26 532.55"/><polygon class="cls-278" points="79.26 532.55 100.24 554.42 57.54 567.2 79.26 532.55"/><polygon class="cls-279" points="42.92 547.45 0.39 532.55 79.26 532.55 42.92 547.45"/><polygon class="cls-280" points="100.24 554.42 166.23 532.55 79.26 532.55 100.24 554.42"/><polygon class="cls-281" points="166.23 532.55 177 493.45 72.48 495.78 166.23 532.55"/><polygon class="cls-282" points="166.23 532.55 230.03 497.91 177 493.45 166.23 532.55"/><polygon class="cls-283" points="57.54 567.2 0.39 532.55 42.92 547.45 57.54 567.2"/><polygon class="cls-284" points="57.54 567.2 0.39 645 0.39 532.55 57.54 567.2"/><polygon class="cls-285" points="0.39 645 0.39 735.2 111.39 659.71 0.39 645"/><polygon class="cls-286" points="111.39 659.71 159 625.26 0.39 645 111.39 659.71"/><polygon class="cls-287" points="159 625.26 57.54 567.2 0.39 645 159 625.26"/><polygon class="cls-288" points="166.23 532.55 157.45 571.45 57.54 567.2 166.23 532.55"/><polygon class="cls-289" points="157.45 571.45 100.24 591.63 57.54 567.2 157.45 571.45"/><polygon class="cls-290" points="168.68 588.78 182.61 606.1 205.45 597.44 168.68 588.78"/><polygon class="cls-291" points="157.45 571.45 168.68 588.78 100.24 591.63 157.45 571.45"/><polygon class="cls-292" points="182.61 606.1 100.24 591.63 168.68 588.78 182.61 606.1"/><polygon class="cls-285" points="182.61 606.1 159 625.26 100.24 591.63 182.61 606.1"/><polygon class="cls-293" points="157.45 571.45 230.03 497.91 166.23 532.55 157.45 571.45"/><polygon class="cls-294" points="168.68 588.78 230.03 497.91 157.45 571.45 168.68 588.78"/><polygon class="cls-295" points="205.45 597.44 218.03 606.87 235.84 598.55 205.45 597.44"/><polygon class="cls-296" points="230.03 497.91 260.2 476.36 232.94 469.78 230.03 497.91"/><polygon class="cls-297" points="230.03 497.91 265.06 519.2 260.2 476.36 230.03 497.91"/><polygon class="cls-298" points="303.39 478.36 287.07 504.87 260.2 476.36 303.39 478.36"/><polygon class="cls-299" points="287.07 504.87 265.06 519.2 260.2 476.36 287.07 504.87"/><polygon class="cls-300" points="265.06 519.2 261 543.34 288.77 543.49 265.06 519.2"/><polygon class="cls-301" points="288.77 543.49 279.34 509.91 265.06 519.2 288.77 543.49"/><polygon class="cls-257" points="288.77 543.49 287.07 504.87 279.34 509.91 288.77 543.49"/><polygon class="cls-302" points="261 543.34 246.57 507.95 265.06 519.2 261 543.34"/><polygon class="cls-303" points="230.03 497.91 236.84 549.78 199.35 543.34 230.03 497.91"/><polygon class="cls-304" points="236.84 549.78 246.57 507.95 230.03 497.91 236.84 549.78"/><polygon class="cls-305" points="236.84 549.78 261 543.34 246.57 507.95 236.84 549.78"/><polygon class="cls-306" points="236.84 549.78 205.45 597.44 199.35 543.34 236.84 549.78"/><polygon class="cls-307" points="205.45 597.44 168.68 588.78 199.35 543.34 205.45 597.44"/><path class="cls-308" d="M235.45,622.65s17.49-16.73,17.1-17-48.38,15.86-47.49,15.89Z" transform="translate(0.39 -24.09)"/><polygon class="cls-309" points="252.94 581.54 236.84 549.78 229.19 589.21 252.94 581.54"/><polygon class="cls-310" points="229.19 589.21 205.45 597.44 236.84 549.78 229.19 589.21"/><polygon class="cls-311" points="252.94 581.54 261 543.34 236.84 549.78 252.94 581.54"/><polygon class="cls-312" points="252.94 581.54 276.92 593.65 235.84 598.55 252.94 581.54"/><polygon class="cls-313" points="276.92 593.65 276.03 561 252.94 581.54 276.92 593.65"/><polygon class="cls-314" points="276.03 561 261 543.34 252.94 581.54 276.03 561"/><polygon class="cls-315" points="276.03 561 288.77 543.49 261 543.34 276.03 561"/><polygon class="cls-316" points="276.03 561 286.36 581.54 288.77 543.49 276.03 561"/><polygon class="cls-317" points="286.36 581.54 280.55 602.16 276.92 593.65 286.36 581.54"/><polygon class="cls-318" points="286.36 581.54 276.03 560.23 276.92 593.65 286.36 581.54"/><path class="cls-319" d="M330,479.42s18.29-12,18.94-12.13-25.13-14.84-25.13-14.84Z" transform="translate(0.39 -24.09)"/><polygon class="cls-320" points="330.39 455.32 324.19 428.36 321.58 451.55 330.39 455.32"/><polygon class="cls-321" points="349.32 443.2 344.03 419.84 324.19 428.36 349.32 443.2"/><polygon class="cls-322" points="345.8 427.62 357.06 405.52 349.32 443.2 345.8 427.62"/><polygon class="cls-323" points="345.8 427.62 344.03 419.84 344.94 405.78 345.8 427.62"/><polygon class="cls-324" points="344.94 405.78 357.06 405.52 345.8 427.62 344.94 405.78"/><polygon class="cls-325" points="362.36 387.32 344.94 405.78 324.19 389 362.36 387.32"/><polygon class="cls-326" points="362.36 387.32 357.06 405.52 344.94 405.78 362.36 387.32"/><polygon class="cls-240" points="367.64 396.85 362.36 387.32 357.06 405.52 367.64 396.85"/><path class="cls-327" d="M382.87,450.52S371,460,370.74,459.6s-14.06-30-14.06-30Z" transform="translate(0.39 -24.09)"/><polygon class="cls-328" points="371.13 435.5 349.32 443.2 357.06 405.52 371.13 435.5"/><polygon class="cls-329" points="287.07 504.87 320.42 504.87 303.39 478.36 287.07 504.87"/><polygon class="cls-330" points="288.77 543.49 303.75 525.65 287.07 504.87 288.77 543.49"/><polygon class="cls-331" points="288.77 543.49 308.52 561 303.75 525.65 288.77 543.49"/><polygon class="cls-332" points="308.52 561 286.36 581.54 288.77 543.49 308.52 561"/><polygon class="cls-333" points="303.75 525.65 320.42 504.87 287.07 504.87 303.75 525.65"/><polygon class="cls-334" points="320.42 504.87 325.98 480.49 303.39 478.36 320.42 504.87"/><polygon class="cls-335" points="320.42 504.87 336 504.87 325.98 480.49 320.42 504.87"/><path class="cls-336" d="M335.61,529s-2.51,25.74-2.51,26S320,529,320,529Z" transform="translate(0.39 -24.09)"/><polygon class="cls-337" points="333.48 530.91 303.75 525.65 320.42 504.87 333.48 530.91"/><polygon class="cls-338" points="333.48 530.91 336 566.33 303.75 525.65 333.48 530.91"/><polygon class="cls-339" points="308.52 561 329.09 557.61 303.75 525.65 308.52 561"/><polygon class="cls-340" points="325.98 480.49 330.39 455.32 321.58 464.71 325.98 480.49"/><polygon class="cls-341" points="325.98 480.49 348.29 466.16 330.39 455.32 325.98 480.49"/><polygon class="cls-342" points="348.29 466.16 349.32 443.2 330.39 455.32 348.29 466.16"/><polygon class="cls-343" points="348.29 466.16 373.19 454.68 349.32 443.2 348.29 466.16"/><polygon class="cls-344" points="373.19 454.68 371.13 435.5 349.32 443.2 373.19 454.68"/><polygon class="cls-345" points="373.19 454.68 389.03 452.13 371.13 435.5 373.19 454.68"/><polygon class="cls-346" points="389.03 452.13 383.26 426.42 371.13 435.5 389.03 452.13"/><polygon class="cls-347" points="383.26 426.42 405.32 403.2 362.36 387.32 383.26 426.42"/><polygon class="cls-348" points="394.23 364.84 405.32 403.2 362.36 387.32 394.23 364.84"/><polygon class="cls-234" points="405.32 403.2 466.61 378.94 394.23 364.84 405.32 403.2"/><polygon class="cls-349" points="389.03 452.13 411.9 441.84 383.26 426.42 389.03 452.13"/><polygon class="cls-350" points="336 504.87 371.9 490.62 325.98 480.49 336 504.87"/><polygon class="cls-351" points="371.9 490.62 379 472.6 325.98 480.49 371.9 490.62"/><path class="cls-352" d="M347.9,490.26l17.48,8.4s-40.59,6.44-39.78,5.92Z" transform="translate(0.39 -24.09)"/><polygon class="cls-353" points="348.29 466.16 373.19 454.68 365.77 474.57 348.29 466.16"/><polygon class="cls-354" points="365.77 474.57 379 472.6 373.19 454.68 365.77 474.57"/><polygon class="cls-355" points="308.52 561 310.06 586.16 333.48 586.16 308.52 561"/><polygon class="cls-356" points="336 566.33 333.48 586.16 319.6 572.17 336 566.33"/><path class="cls-357" d="M335.61,590.42l-6.91-8.72s-10.31,14.86-9.48,14.57Z" transform="translate(0.39 -24.09)"/><polygon class="cls-358" points="319.6 572.17 308.52 561 329.09 557.61 319.6 572.17"/><polygon class="cls-359" points="336 566.33 359.13 552.17 333.48 530.91 336 566.33"/><polygon class="cls-360" points="336 566.33 333.48 586.16 365.32 583.16 336 566.33"/><polygon class="cls-361" points="310.06 586.16 286.36 581.54 308.52 561 310.06 586.16"/><polygon class="cls-362" points="280.55 602.16 302.6 584.71 286.36 581.54 280.55 602.16"/><polygon class="cls-363" points="310.06 586.16 318.29 605.03 280.55 602.16 310.06 586.16"/><polygon class="cls-364" points="310.06 586.16 302.6 584.71 280.55 602.16 310.06 586.16"/><polygon class="cls-365" points="318.29 605.03 333.48 586.16 310.06 586.16 318.29 605.03"/><polygon class="cls-366" points="276.92 593.65 267.48 602.16 280.55 602.16 276.92 593.65"/><polygon class="cls-367" points="267.48 601.74 235.84 598.55 276.92 593.65 267.48 601.74"/><polygon class="cls-368" points="218.03 606.87 212.13 621.39 235.84 598.55 218.03 606.87"/><path class="cls-369" d="M211.74,645.48c.44-.43,33.67-21.83,33.67-21.83l-10-1Z" transform="translate(0.39 -24.09)"/><path class="cls-370" d="M211.74,645.48s4.36,8.23,5.13,8.13,35.23-6.67,35.23-6.67Z" transform="translate(0.39 -24.09)"/><polygon class="cls-371" points="212.13 621.39 245.79 599.55 235.84 622.24 212.13 621.39"/><polygon class="cls-372" points="235.84 622.24 252.48 622.84 245.79 599.55 235.84 622.24"/><polygon class="cls-373" points="252.48 622.84 264.03 609.52 245.79 599.55 252.48 622.84"/><polygon class="cls-374" points="264.03 609.52 267.48 602.16 245.79 599.55 264.03 609.52"/><polygon class="cls-375" points="264.03 609.52 280.55 602.16 267.48 602.16 264.03 609.52"/><polygon class="cls-376" points="252.48 622.84 273.26 611.65 264.03 609.52 252.48 622.84"/><polygon class="cls-377" points="273.26 611.65 280.55 602.16 264.03 609.52 273.26 611.65"/><polygon class="cls-378" points="371.9 490.62 389.03 502.42 365.77 538.55 371.9 490.62"/><polygon class="cls-379" points="365.77 538.55 333.48 530.91 336 504.87 365.77 538.55"/><polygon class="cls-380" points="365.77 538.55 371.9 490.62 336 504.87 365.77 538.55"/><polygon class="cls-381" points="365.77 538.55 359.13 552.17 333.48 530.91 365.77 538.55"/><path class="cls-382" d="M358.74,576.27s55.87,30.5,56.91,31.28-50.27-44.9-50.27-44.9Z" transform="translate(0.39 -24.09)"/><polygon class="cls-383" points="365.32 583.16 359.13 552.17 334.56 566.33 365.32 583.16"/><polygon class="cls-384" points="365.32 583.16 416.03 583.45 359.13 552.17 365.32 583.16"/><path class="cls-385" d="M388.65,526.52s5.83,27.87,5.19,27.87-28.46,8.26-28.46,8.26Z" transform="translate(0.39 -24.09)"/><polygon class="cls-386" points="389.03 502.42 411.26 471.58 438.74 511.84 389.03 502.42"/><polygon class="cls-387" points="389.03 502.42 371.9 490.62 379 472.6 389.03 502.42"/><polygon class="cls-388" points="389.03 502.42 411.26 471.58 379 472.6 389.03 502.42"/><polygon class="cls-389" points="379 472.6 389.03 452.13 373.19 454.68 379 472.6"/><polygon class="cls-390" points="379 472.6 411.26 471.58 389.03 452.13 379 472.6"/><polygon class="cls-391" points="394.23 530.29 439.52 543.33 389.03 502.42 394.23 530.29"/><polygon class="cls-392" points="439.52 543.33 438.74 511.84 389.03 502.42 439.52 543.33"/><polygon class="cls-393" points="439.52 543.33 461.32 564.89 449.45 597.65 439.52 543.33"/><polygon class="cls-394" points="416.03 583.45 394.23 530.29 365.77 538.55 416.03 583.45"/><polygon class="cls-395" points="416.03 583.45 439.52 543.33 394.23 530.29 416.03 583.45"/><polygon class="cls-396" points="416.03 583.45 449.45 597.65 439.52 543.33 416.03 583.45"/><path class="cls-397" d="M317.9,629.13l8.33,7.39s-39.62-1.42-39.17-1.23S317.9,629.13,317.9,629.13Z" transform="translate(0.39 -24.09)"/><polygon class="cls-398" points="287.45 611.2 273.26 611.65 280.55 602.16 287.45 611.2"/><polygon class="cls-399" points="287.45 611.2 318.29 605.03 280.55 602.16 287.45 611.2"/><polygon class="cls-400" points="252.48 622.84 233.26 634.49 257.97 627.97 252.48 622.84"/><polygon class="cls-401" points="257.97 627.97 273.26 611.65 252.48 622.84 257.97 627.97"/><polygon class="cls-402" points="257.97 627.97 287.45 611.2 273.26 611.65 257.97 627.97"/><polygon class="cls-403" points="233.26 634.49 203.58 652.23 205.58 656.55 233.26 634.49"/><polygon class="cls-404" points="233.26 634.49 205.58 656.55 257.97 627.97 233.26 634.49"/><polygon class="cls-405" points="205.58 656.55 197.52 657.33 216.35 667.91 205.58 656.55"/><polygon class="cls-406" points="205.58 656.55 267.13 650.68 216.35 667.91 205.58 656.55"/><polygon class="cls-407" points="267.13 650.68 257.97 627.97 205.58 656.55 267.13 650.68"/><polygon class="cls-408" points="267.13 650.68 287.45 611.2 257.97 627.97 267.13 650.68"/><polygon class="cls-409" points="267.13 650.68 298.36 649.13 287.45 611.2 267.13 650.68"/><polygon class="cls-410" points="298.36 649.13 301.39 642.26 291.55 625.45 298.36 649.13"/><polygon class="cls-411" points="291.55 625.45 326.61 612.42 287.45 611.2 291.55 625.45"/><polygon class="cls-412" points="291.55 625.45 360.29 627.52 326.61 612.42 291.55 625.45"/><polygon class="cls-413" points="301.39 642.26 314.68 626.15 291.55 625.45 301.39 642.26"/><polygon class="cls-414" points="301.39 642.26 312.81 651.91 332.29 646.36 301.39 642.26"/><polygon class="cls-415" points="332.29 646.36 314.68 626.15 301.39 642.26 332.29 646.36"/><polygon class="cls-416" points="332.29 646.36 360.29 627.52 314.68 626.15 332.29 646.36"/><polygon class="cls-417" points="332.29 646.36 355.9 660.87 360.29 627.52 332.29 646.36"/><polygon class="cls-418" points="312.81 651.91 305.26 660.03 301.39 642.26 312.81 651.91"/><polygon class="cls-419" points="301.39 642.26 298.36 649.13 305.26 660.03 301.39 642.26"/><polygon class="cls-420" points="267.13 650.68 246.47 657.69 276.36 671.97 267.13 650.68"/><polygon class="cls-421" points="276.36 671.97 305.26 660.03 267.13 650.68 276.36 671.97"/><polygon class="cls-422" points="298.36 649.13 305.26 660.03 267.13 650.68 298.36 649.13"/><polygon class="cls-423" points="246.47 657.69 235.39 667.52 284.94 690.87 246.47 657.69"/><polygon class="cls-295" points="235.39 667.52 216.35 667.91 246.47 657.69 235.39 667.52"/><polygon class="cls-424" points="284.94 690.87 320.23 692.36 276.36 671.97 284.94 690.87"/><polygon class="cls-425" points="284.94 690.87 276.36 671.97 246.47 657.69 284.94 690.87"/><polygon class="cls-426" points="320.23 692.36 375 717.39 284.94 690.87 320.23 692.36"/><polygon class="cls-427" points="375 717.39 406.94 746.81 284.94 690.87 375 717.39"/><polygon class="cls-428" points="375 717.39 479.32 764.03 473.32 777.58 375 717.39"/><polygon class="cls-429" points="375 717.39 406.94 746.81 473.32 777.58 375 717.39"/><polygon class="cls-430" points="235.39 667.52 238.1 674.28 288.29 697.2 235.39 667.52"/><polygon class="cls-431" points="288.29 697.2 284.94 690.87 235.39 667.52 288.29 697.2"/><polygon class="cls-432" points="288.29 697.2 341.76 723.53 284.94 690.87 288.29 697.2"/><polygon class="cls-433" points="284.94 690.87 341.76 723.53 406.94 746.81 284.94 690.87"/><polygon class="cls-434" points="341.76 723.53 469.58 783.58 406.94 746.81 341.76 723.53"/><polygon class="cls-435" points="469.58 783.58 473.32 777.58 406.94 746.81 469.58 783.58"/><path class="cls-436" d="M158.61,649.35c2.2-.12,32.26-11.61,32.26-11.61l-8.64-7.55Z" transform="translate(0.39 -24.09)"/><polygon class="cls-437" points="191.26 613.65 205.45 597.44 182.61 606.1 191.26 613.65"/><polygon class="cls-438" points="191.26 613.65 212.13 621.39 205.45 597.44 191.26 613.65"/><polygon class="cls-439" points="212.13 621.39 218.03 606.87 205.45 597.44 212.13 621.39"/><polygon class="cls-440" points="212.13 621.39 179.52 642.26 203.58 652.23 212.13 621.39"/><polygon class="cls-441" points="212.13 621.39 217.26 629.52 203.58 652.23 212.13 621.39"/><polygon class="cls-442" points="217.26 629.52 252.48 622.84 203.58 652.23 217.26 629.52"/><polygon class="cls-443" points="179.52 642.26 191.26 613.65 212.13 621.39 179.52 642.26"/><polygon class="cls-444" points="159 625.26 179.52 642.26 191.26 613.65 159 625.26"/><polygon class="cls-445" points="111.39 659.71 148.94 751.07 0.39 735.2 111.39 659.71"/><polygon class="cls-446" points="0.39 735.2 0.39 735.2 0.39 793.7 148.94 751.07 0.39 735.2"/><polygon class="cls-447" points="148.94 751.07 181.06 697.2 111.39 659.71 148.94 751.07"/><polygon class="cls-448" points="181.06 697.2 159 625.26 111.39 659.71 181.06 697.2"/><polygon class="cls-449" points="181.06 697.2 179.52 642.26 159 625.26 181.06 697.2"/><polygon class="cls-450" points="148.94 751.07 221.15 793.7 0.39 793.7 148.94 751.07"/><path class="cls-451" d="M148.55,775.16" transform="translate(0.39 -24.09)"/><polygon class="cls-452" points="148.94 751.07 181.06 697.2 221.15 793.7 148.94 751.07"/><polygon class="cls-453" points="181.06 697.2 197.52 657.33 179.52 642.26 181.06 697.2"/><polygon class="cls-454" points="197.52 657.33 203.58 652.23 179.52 642.26 197.52 657.33"/><polygon class="cls-455" points="197.52 657.33 216.35 667.91 181.06 697.2 197.52 657.33"/><polygon class="cls-456" points="216.35 667.91 241.06 700.87 181.06 697.2 216.35 667.91"/><polygon class="cls-457" points="241.06 700.87 238.1 674.28 216.35 667.91 241.06 700.87"/><polygon class="cls-458" points="181.06 697.2 222.23 793.7 241.06 700.87 181.06 697.2"/><polygon class="cls-459" points="241.06 700.87 288.29 697.2 238.1 674.28 241.06 700.87"/><polygon class="cls-460" points="241.06 700.87 222.23 793.7 358.38 793.7 241.06 700.87"/><polygon class="cls-461" points="241.06 700.87 288.29 697.2 295.93 744.29 241.06 700.87"/><polygon class="cls-462" points="295.93 744.29 341.76 723.53 288.29 697.2 295.93 744.29"/><polygon class="cls-463" points="295.93 744.29 358.38 793.7 341.76 723.53 295.93 744.29"/><polygon class="cls-464" points="358.38 793.7 341.76 723.53 469.58 783.58 358.38 793.7"/><polygon class="cls-465" points="469.58 783.58 482.87 793.7 358.38 793.7 469.58 783.58"/><polygon class="cls-466" points="305.26 660.03 320.23 692.36 276.36 671.97 305.26 660.03"/><polygon class="cls-467" points="320.23 692.36 312.81 651.91 305.26 660.03 320.23 692.36"/><polygon class="cls-468" points="320.23 692.36 375 717.39 312.81 651.91 320.23 692.36"/><polygon class="cls-469" points="332.29 646.36 355.9 660.87 312.81 651.91 332.29 646.36"/><polygon class="cls-470" points="355.9 660.87 375 717.39 312.81 651.91 355.9 660.87"/><polygon class="cls-471" points="326.61 612.42 377.4 614.94 360.29 627.52 326.61 612.42"/><polygon class="cls-472" points="333.48 586.16 368.55 606.1 318.29 605.03 333.48 586.16"/><polygon class="cls-473" points="368.55 606.1 326.61 612.42 318.29 605.03 368.55 606.1"/><polygon class="cls-316" points="368.55 606.1 365.32 583.16 333.48 586.16 368.55 606.1"/><polygon class="cls-474" points="368.55 606.1 377.4 614.94 326.61 612.42 368.55 606.1"/><polygon class="cls-475" points="360.29 627.52 382.23 625.45 377.4 614.94 360.29 627.52"/><path class="cls-476" d="M381.84,649.55l12,4.06s-2.39-21.84-3.33-20.79S381.84,649.55,381.84,649.55Z" transform="translate(0.39 -24.09)"/><polygon class="cls-477" points="382.23 625.45 390.9 608.73 377.4 614.94 382.23 625.45"/><polygon class="cls-478" points="377.4 614.94 390.9 608.73 368.55 606.1 377.4 614.94"/><polygon class="cls-479" points="390.9 608.73 365.32 583.16 368.55 606.1 390.9 608.73"/><polygon class="cls-480" points="390.9 608.73 416.03 583.45 365.32 583.16 390.9 608.73"/><polygon class="cls-481" points="382.23 625.45 355.9 660.87 360.29 627.52 382.23 625.45"/><polygon class="cls-482" points="355.9 660.87 400.03 656.55 382.23 625.45 355.9 660.87"/><polygon class="cls-483" points="375 717.39 400.03 656.55 355.9 660.87 375 717.39"/><polygon class="cls-484" points="375 716.36 424.16 700.87 400.03 656.55 375 716.36"/><polygon class="cls-485" points="424.16 700.87 443.39 726.16 375 716.36 424.16 700.87"/><polygon class="cls-486" points="375 716.36 443.39 726.16 479.32 764.03 375 716.36"/><polygon class="cls-487" points="443.39 726.16 456.55 723.53 479.32 764.03 456.55 723.53 461.32 689.26 443.39 726.16"/><polygon class="cls-488" points="443.39 726.16 424.16 700.87 461.32 689.26 443.39 726.16"/><polygon class="cls-489" points="424.16 700.87 423.73 700.08 400.03 656.55 437.97 667.52 424.16 700.87"/><polygon class="cls-490" points="437.97 667.52 461.32 689.26 424.16 700.87 437.97 667.52"/><polygon class="cls-491" points="437.97 667.52 440.13 633.86 400.03 656.55 437.97 667.52"/><polygon class="cls-492" points="440.13 633.86 394.23 629.52 400.03 656.55 440.13 633.86"/><polygon class="cls-493" points="394.23 629.52 382.23 625.45 400.03 656.55 394.23 629.52"/><polygon class="cls-494" points="394.23 629.52 440.13 633.86 390.9 608.73 394.23 629.52"/><polygon class="cls-495" points="440.13 633.86 416.03 583.45 390.9 608.73 440.13 633.86"/><path class="cls-496" d="M439.74,658l31.91-5.19s-6.46-13-6.46-12.49S439.74,658,439.74,658Z" transform="translate(0.39 -24.09)"/><polygon class="cls-497" points="440.13 633.86 430.47 613.65 465.58 616.18 440.13 633.86"/><polygon class="cls-498" points="449.45 597.65 430.47 613.65 416.03 583.45 449.45 597.65"/><polygon class="cls-499" points="449.45 597.65 465.58 616.18 430.47 613.65 449.45 597.65"/><path class="cls-500" d="M454.9,605.63s26.55,33.58,27.58,35.56-17.29-.92-17.29-.92Z" transform="translate(0.39 -24.09)"/><polygon class="cls-501" points="465.58 616.18 449.45 597.65 455.29 581.54 465.58 616.18"/><polygon class="cls-502" points="472.03 628.66 437.97 667.52 440.13 633.86 472.03 628.66"/><polygon class="cls-503" points="472.03 628.66 490.61 642.26 465.58 616.18 472.03 628.66"/><polygon class="cls-504" points="490.61 642.26 437.97 667.52 472.03 628.66 490.61 642.26"/><polygon class="cls-505" points="490.61 642.26 516.29 675.07 450.42 661.54 490.61 642.26"/><polygon class="cls-506" points="461.32 689.26 482.01 668.03 450.42 661.54 461.32 689.26"/><polygon class="cls-507" points="461.32 689.26 450.42 661.54 437.97 667.52 461.32 689.26"/><polygon class="cls-508" points="466.26 684.2 518.36 689.26 482.01 668.03 466.26 684.2"/><polygon class="cls-509" points="461.32 689.26 518.36 689.26 466.26 684.2 461.32 689.26"/><polygon class="cls-510" points="516.29 675.07 518.36 689.26 482.01 668.03 516.29 675.07"/><polygon class="cls-511" points="516.29 675.07 516.98 675.25 539.9 681.52 533.19 691.71 516.29 675.07"/><polygon class="cls-512" points="518.36 689.26 533.19 691.71 516.29 675.07 518.36 689.26"/><polygon class="cls-513" points="533.19 691.71 545.71 693.65 539.9 681.52 533.19 691.71"/><path class="cls-514" d="M518,713.35s3.74,7.1,4.13,7.1,23.22-2.71,23.22-2.71Z" transform="translate(0.39 -24.09)"/><polygon class="cls-406" points="522.48 696.36 461.32 689.26 518.36 689.26 522.48 696.36"/><path class="cls-515" d="M456.16,747.63s35.13,1,35.76.69-30.86-35.61-31-35S456.16,747.63,456.16,747.63Z" transform="translate(0.39 -24.09)"/><polygon class="cls-516" points="479.32 764.03 492.31 724.23 456.55 723.53 479.32 764.03"/><polygon class="cls-517" points="492.31 724.23 522.48 696.36 461.32 689.26 492.31 724.23"/><polygon class="cls-518" points="367.64 396.85 383.26 426.42 357.06 405.52 367.64 396.85"/><polygon class="cls-519" points="560.42 271.84 565.58 285.39 552.76 285.48 560.42 271.84"/><polygon class="cls-520" points="595.66 327.32 587 334.55 595.66 384.02 595.66 327.32"/><polygon class="cls-521" points="553.58 376.49 595.66 384.02 587 334.55 553.58 376.49"/><polygon class="cls-522" points="553.58 376.49 466.61 378.94 521.23 353.91 553.58 376.49"/><polygon class="cls-523" points="405.32 403.2 411.9 441.84 383.26 426.42 405.32 403.2"/><polygon class="cls-524" points="405.32 403.2 411.9 441.84 436.97 390.67 405.32 403.2"/><polygon class="cls-525" points="436.97 390.67 474.29 427.45 466.61 378.94 436.97 390.67"/><polygon class="cls-526" points="411.9 441.84 474.29 427.45 436.97 390.67 411.9 441.84"/><polygon class="cls-527" points="411.9 441.84 411.26 471.58 389.03 452.13 411.9 441.84"/><polygon class="cls-528" points="473.32 777.58 482.87 793.7 469.58 783.58 473.32 777.58"/><polygon class="cls-529" points="473.32 777.58 479.32 764.03 490.26 772.65 482.87 793.7 473.32 777.58"/><polygon class="cls-530" points="482.87 793.7 501.1 793.7 490.26 772.65 482.87 793.7"/><polygon class="cls-531" points="456.55 723.53 443.39 726.16 479.32 764.03 456.55 723.53"/><polygon class="cls-532" points="479.32 764.03 490.26 772.65 492.31 724.23 479.32 764.03"/><polygon class="cls-204" points="474.29 427.45 553.58 376.49 466.61 378.94 474.29 427.45"/><polygon class="cls-533" points="411.9 441.84 411.26 471.58 474.29 427.45 411.9 441.84"/><polygon class="cls-534" points="411.26 471.58 438.74 511.84 436.97 452.13 411.26 471.58"/><polygon class="cls-535" points="439.52 543.33 461.32 534.87 438.74 511.84 439.52 543.33"/><polygon class="cls-536" points="461.32 534.87 436.97 452.13 438.74 511.84 461.32 534.87"/><polygon class="cls-537" points="461.32 564.89 461.32 534.87 439.52 543.33 461.32 564.89"/><polygon class="cls-538" points="482.87 617.09 461.32 534.87 461.32 564.89 482.87 617.09"/><polygon class="cls-539" points="461.32 564.89 455.29 581.54 482.87 617.09 461.32 564.89"/><polygon class="cls-540" points="482.87 617.09 465.58 616.18 490.61 642.26 482.87 617.09"/><polygon class="cls-541" points="553.58 376.49 570.48 403.2 595.66 384.02 553.58 376.49"/><polygon class="cls-542" points="570.48 403.2 563.32 430.55 474.29 427.45 553.58 376.49 570.48 403.2"/><polygon class="cls-543" points="563.32 430.55 571.64 453.58 595.66 448.96 595.66 384.02 570.48 403.2 563.32 430.55"/><polygon class="cls-544" points="474.29 427.45 507 455.32 563.32 430.55 474.29 427.45"/><polygon class="cls-545" points="474.29 427.45 452.47 442.73 507 455.32 474.29 427.45"/><polygon class="cls-546" points="507 455.32 522.39 461.52 563.32 430.55 507 455.32"/><polygon class="cls-547" points="522.39 461.52 550.16 473.71 571.64 453.58 563.32 430.55 522.39 461.52"/><polygon class="cls-548" points="436.97 452.13 446.85 485.7 452.47 442.73 436.97 452.13"/><path class="cls-549" d="M446.46,509.79,460.94,559s18.63-36,18.41-36S446.46,509.79,446.46,509.79Z" transform="translate(0.39 -24.09)"/><polygon class="cls-550" points="446.85 485.7 452.47 442.73 479.73 498.87 446.85 485.7"/><polygon class="cls-551" points="479.73 498.87 507 455.32 452.47 442.73 479.73 498.87"/><polygon class="cls-545" points="550.16 473.71 595.66 495.58 595.66 448.96 571.64 453.58 550.16 473.71"/><polygon class="cls-552" points="479.73 498.87 522.39 461.52 507 455.32 479.73 498.87"/><polygon class="cls-553" points="595.66 495.58 595.66 525 560.23 511.84 595.66 495.58"/><polygon class="cls-554" points="560.23 511.84 550.16 473.71 595.66 495.58 560.23 511.84"/><polygon class="cls-555" points="560.23 511.84 524.42 514.74 524.42 494.42 560.23 511.84"/><polygon class="cls-556" points="524.42 494.42 522.39 461.52 550.16 473.71 524.42 494.42"/><polygon class="cls-557" points="524.42 494.42 560.23 511.84 550.16 473.71 524.42 494.42"/><polygon class="cls-558" points="524.42 494.42 524.42 514.74 519.77 513.39 524.42 494.42"/><polygon class="cls-559" points="519.77 513.39 519.77 463.81 522.39 461.52 524.42 494.42 519.77 513.39"/><polygon class="cls-560" points="519.77 513.39 516.29 510.29 516.29 490.94 519.77 483 519.77 513.39"/><polygon class="cls-561" points="516.29 490.94 515.4 467.64 519.77 463.81 519.77 483 516.29 490.94"/><polygon class="cls-562" points="516.29 510.29 513.39 511.84 504.48 494.42 501.06 480.2 515.4 467.64 516.29 490.94 516.29 510.29"/><polygon class="cls-563" points="513.39 511.84 479.73 498.87 501.06 480.2 504.48 494.42 513.39 511.84"/><polygon class="cls-564" points="461.32 534.87 482.87 617.09 490.61 578.62 475.97 571.45 461.32 534.87"/><polygon class="cls-565" points="461.32 534.87 479.73 498.87 502.16 548.62 461.32 534.87"/><polygon class="cls-566" points="502.16 548.62 513.39 511.84 479.73 498.87 502.16 548.62"/><polygon class="cls-567" points="502.16 548.62 498.87 564.89 461.32 534.87 502.16 548.62"/><polygon class="cls-568" points="498.87 564.89 490.61 578.62 475.97 571.45 486.84 555.27 498.87 564.89"/><polygon class="cls-569" points="486.84 555.27 461.32 534.87 475.97 571.45 486.84 555.27"/><polygon class="cls-570" points="502.16 548.62 524.42 514.74 519.77 513.39 516.29 510.29 513.39 511.84 502.16 548.62"/><polygon class="cls-571" points="498.87 564.89 525.71 594.55 490.61 578.62 498.87 564.89"/><polygon class="cls-536" points="525.22 594.01 528.55 614.94 486.07 601.2 490.61 578.62 525.22 594.01"/><polygon class="cls-572" points="525.22 594.01 551.64 581 498.87 564.89 525.22 594.01"/><path class="cls-448" d="M551.26,605.1l20-21.42s-41.94-9-42.32-8.52S551.26,605.1,551.26,605.1Z" transform="translate(0.39 -24.09)"/><polygon class="cls-573" points="529.32 551.07 522.1 571.98 551.64 581 529.32 551.07"/><polygon class="cls-574" points="502.16 548.62 522.1 571.98 498.87 564.89 502.16 548.62"/><polygon class="cls-575" points="502.16 548.62 529.32 551.07 522.1 571.98 502.16 548.62"/><polygon class="cls-576" points="529.32 551.07 553.19 529.45 524.42 514.74 502.16 548.62 529.32 551.07"/><polygon class="cls-577" points="553.19 529.45 560.23 511.84 524.42 514.74 553.19 529.45"/><path class="cls-578" d="M549.52,556.52l3.87,2.45h20.32l.45-5.42s-8.19-6.71-8.51-6.78-10.56,1.07-10.56,1.07l-2.28,5.71Z" transform="translate(0.39 -24.09)"/><polygon class="cls-579" points="571.64 559.58 529.32 551.07 549.91 532.43 553.77 534.87 574.1 534.87 576 550.65 571.64 559.58"/><polygon class="cls-580" points="574.55 529.45 595.66 543.29 595.66 525 560.23 511.84 555.47 523.74 566.03 522.68 574.55 529.45"/><polygon class="cls-581" points="595.66 543.29 595.66 566.03 576 550.65 574.1 534.87 574.55 529.45 595.66 543.29"/><path class="cls-582" d="M575.61,574.74l-4.35,8.94-20,21.42s20.9,6.58,21.22,6.77,22.8,3.81,22.8,3.81V590.13Z" transform="translate(0.39 -24.09)"/><polygon class="cls-434" points="482.87 617.09 490.61 642.26 504.48 641.62 482.87 617.09"/><polygon class="cls-583" points="482.87 617.09 512.03 619.45 510.46 609.09 486.07 601.2 482.87 617.09"/><polygon class="cls-584" points="512.03 619.45 504.48 641.62 482.87 617.09 512.03 619.45"/><polygon class="cls-585" points="504.48 641.62 530.9 658.66 516.98 675.25 490.61 642.26 504.48 641.62"/><polygon class="cls-586" points="530.9 658.66 549.68 648.49 508.36 630.25 504.48 641.62 530.9 658.66"/><polygon class="cls-587" points="530.9 658.66 539.9 681.52 516.98 675.25 530.9 658.66"/><polygon class="cls-588" points="539.9 681.52 568.64 685.16 573.29 671.52 530.9 658.66 539.9 681.52"/><polygon class="cls-589" points="573.29 671.52 582.97 661.65 549.68 648.49 530.9 658.66 573.29 671.52"/><polygon class="cls-590" points="512.03 619.45 548.23 635.03 549.68 648.49 508.36 630.25 512.03 619.45"/><path class="cls-591" d="M511.65,643.55l36.19,15.58s5.81-9,5.42-9.19S528.16,639,528.16,639l-18.09-5.85Z" transform="translate(0.39 -24.09)"/><polygon class="cls-592" points="528.55 614.94 553.64 625.84 568.45 618.58 527.08 604.16 528.55 614.94"/><polygon class="cls-593" points="568.45 618.58 552 594.55 525.71 594.55 527.08 604.16 568.45 618.58"/><polygon class="cls-594" points="552 594.55 572.87 587.78 551.64 581 525.22 594.01 552 594.55"/><polygon class="cls-595" points="552 594.55 568.45 618.58 595.66 622.06 595.66 591.58 572.87 587.78 552 594.55"/><polygon class="cls-596" points="553.64 625.84 595.66 638.23 595.66 622.06 568.45 618.58 553.64 625.84"/><polygon class="cls-597" points="548.23 635.03 575.71 647.52 574.84 658.43 549.68 648.49 548.23 635.03"/><polygon class="cls-598" points="545.71 693.65 567.52 704.87 585.45 698.16 568.64 685.16 539.9 681.52 545.71 693.65"/><polygon class="cls-599" points="545.71 693.65 552.1 720.49 517.59 700.88 522.48 696.36 545.71 693.65"/><polygon class="cls-514" points="552.1 720.49 567.52 704.87 545.71 693.65 552.1 720.49"/><polygon class="cls-600" points="541.71 714.58 542.87 723.53 564.68 737.52 569.58 733.13 552.1 720.49 541.71 714.58"/><polygon class="cls-601" points="542.87 723.53 539.45 725.52 538.36 712.68 541.71 714.58 542.87 723.53"/><polygon class="cls-602" points="539.45 725.52 510.46 707.47 517.59 700.88 538.36 712.68 539.45 725.52"/><polygon class="cls-603" points="492.31 724.23 528.1 718.45 510.46 707.47 492.31 724.23"/><polygon class="cls-604" points="492.31 724.23 491.9 733.75 528.1 718.45 492.31 724.23"/><polygon class="cls-605" points="491.9 733.75 491.48 743.78 499 747.49 508.68 739.07 500.18 730.25 491.9 733.75"/><polygon class="cls-606" points="508.68 739.07 529.32 745.78 536.26 723.53 528.1 718.45 500.18 730.25 508.68 739.07"/><polygon class="cls-607" points="529.32 745.78 553.97 746.81 564.68 737.52 542.87 723.53 539.45 725.52 536.26 723.53 529.32 745.78"/><polygon class="cls-608" points="491.48 743.78 505.97 793.7 501.1 793.7 490.26 772.65 491.48 743.78"/><polygon class="cls-609" points="499 747.49 512.55 756.1 531.39 758.03 529.32 745.78 508.68 739.07 499 747.49"/><polygon class="cls-610" points="512.55 756.1 522.48 788.64 504.31 788 491.48 743.78 499 747.49 512.55 756.1"/><polygon class="cls-611" points="569.58 733.13 582.97 721 567.52 704.87 552.1 720.49 569.58 733.13"/><polygon class="cls-612" points="569.58 733.13 595.66 742.03 595.66 717.52 582.97 721 569.58 733.13"/><polygon class="cls-613" points="569.58 733.13 564.68 737.52 553.97 746.81 567.53 751.97 595.66 753.91 595.66 742.03 569.58 733.13"/><polygon class="cls-463" points="585.45 698.16 595.66 696.48 595.66 657.65 582.97 661.65 573.29 671.52 568.64 685.16 585.45 698.16"/><polygon class="cls-614" points="575.71 647.52 595.66 650.16 595.66 638.23 553.64 625.84 548.23 635.03 575.71 647.52"/><polygon class="cls-615" points="575.71 647.52 574.84 658.43 582.97 661.65 595.66 657.65 595.66 650.16 575.71 647.52"/><polygon class="cls-415" points="595.66 696.48 585.45 698.16 567.52 704.87 582.97 721 595.66 717.52 595.66 696.48"/><polygon class="cls-616" points="553.97 746.81 567.53 751.97 569.58 762.94 531.39 758.03 529.32 745.78 553.97 746.81"/><polygon class="cls-597" points="531.39 758.03 522.48 788.64 512.55 756.1 531.39 758.03"/><polygon class="cls-617" points="522.48 788.64 525.58 793.7 505.97 793.7 504.31 788 522.48 788.64"/><polygon class="cls-461" points="525.58 793.7 547 793.7 554.71 761.03 531.39 758.03 522.48 788.64 525.58 793.7"/><polygon class="cls-618" points="547 793.7 595.66 793.7 569.58 762.94 554.71 761.03 547 793.7"/><polygon class="cls-619" points="595.65 793.7 595.65 753.91 567.52 751.97 569.57 762.94 595.65 793.7"/></g></svg>