<svg xmlns="http://www.w3.org/2000/svg" xmlns:xlink="http://www.w3.org/1999/xlink" viewBox="0 0 595.28 792.78"><defs><style>.cls-1{fill:#77c8d6;}.cls-2{fill:#a8d3d8;}.cls-3{fill:#a9d3d9;}.cls-4{fill:#acd2d8;}.cls-5{fill:#cbcbc8;}.cls-6{fill:#cbcfcd;}.cls-7{fill:#c8d0d0;}.cls-8{fill:#cdcdc9;}.cls-9{fill:#aaaeb2;}.cls-10{fill:#b3acae;}.cls-11{fill:#b2b2b4;}.cls-12{fill:#c0bcbc;}.cls-13{fill:#e29774;}.cls-14{fill:#09323f;}.cls-15{fill:#9c7165;}.cls-16{fill:#cc9079;}.cls-17{fill:#0b3e4e;}.cls-18{fill:#999fab;}.cls-19{fill:#447889;}.cls-20{fill:#08697b;}.cls-21{fill:#4a6570;}.cls-22{fill:#648b99;}.cls-23{fill:#738e9c;}.cls-24{fill:#3f6874;}.cls-25{fill:#989fab;}.cls-26{fill:#97a3ac;}.cls-27{fill:#949fab;}.cls-28{fill:#1e93ac;}.cls-29{fill:#3a97ac;}.cls-30{fill:#4096af;}.cls-31{fill:#208aa6;}.cls-32{fill:#208da7;}.cls-33{fill:#208da6;}.cls-34{fill:#1f8da8;}.cls-35{fill:#208ea8;}.cls-36{fill:#208fa8;}.cls-37{fill:#208fa9;}.cls-38{fill:#083e5d;}.cls-39{fill:#175d83;}.cls-40{fill:#127197;}.cls-41{fill:#175e82;}.cls-42{fill:#0e6f92;}.cls-43{fill:#0d2e42;}.cls-44{fill:#092736;}.cls-45{fill:#0a2e3f;}.cls-46{fill:#07222d;}.cls-47{fill:#0a2534;}.cls-48{fill:#092230;}.cls-49{fill:#081f27;}.cls-50{fill:#0c1e29;}.cls-51{fill:#0c1b27;}.cls-52{fill:#072b38;}.cls-53{fill:#09212c;}.cls-54{fill:#0f7398;}.cls-55{fill:#06212a;}.cls-56{fill:#0e202f;}.cls-57{fill:#071f29;}.cls-58{fill:#0b202c;}.cls-59{fill:#0a1118;}.cls-60{fill:#0f1826;}.cls-61{fill:#0a141f;}.cls-62{fill:#0a1117;}.cls-63{fill:#0a222c;}.cls-64{fill:#0e232e;}.cls-65{fill:#08212a;}.cls-66{fill:#0b1e26;}.cls-67{fill:#0a1c22;}.cls-68{fill:#0b202a;}.cls-69{fill:#0a0e10;}.cls-70{fill:#0a0f11;}.cls-71{fill:#09141d;}</style></defs><title>Mountain</title><g id="Layer_1" data-name="Layer 1"><image width="3448" height="4592" transform="translate(0) scale(0.17)" xlink:href="../../low%20poly/pexels-aleksey-kuprikov-3551227.jpg"/></g><g id="Layer_2" data-name="Layer 2"><polygon class="cls-1" points="0 3.12 0 121.57 199.65 114.61 309.58 58.86 297.64 0 0 3.12"/><polygon class="cls-1" points="309.58 58.86 404.81 107.64 595.28 113.83 595.28 0 297.64 0 309.58 58.86"/><polygon class="cls-2" points="595.28 113.83 595.28 234.61 366.87 252.41 404.81 107.64 595.28 113.83"/><polygon class="cls-3" points="366.87 252.41 204.29 276.41 199.65 114.61 309.58 58.86 404.81 107.64 366.87 252.41"/><polygon class="cls-4" points="204.29 276.41 0 290.35 0 121.57 199.65 114.61 204.29 276.41"/><polygon class="cls-5" points="0 290.35 0 376.54 263.39 372.67 204.29 276.41 0 290.35"/><polygon class="cls-6" points="263.39 372.67 312.16 335.25 366.87 252.41 204.29 276.41 263.39 372.67"/><polygon class="cls-7" points="312.16 335.25 345.45 365.44 382.36 359.25 485.76 243.14 366.87 252.41 312.16 335.25"/><polygon class="cls-8" points="382.36 359.25 458.23 366.74 595.28 363.9 595.28 234.61 485.76 243.14 382.36 359.25"/><polygon class="cls-9" points="595.28 363.9 595.28 389.19 462.1 380.15 458.23 366.74 595.28 363.9"/><polygon class="cls-10" points="0 376.54 0 403.38 120.68 389.96 185.97 373.81 0 376.54"/><polygon class="cls-11" points="263.39 372.67 216.42 383.51 196.55 379.9 141.09 384.91 185.97 373.81 263.39 372.67"/><polygon class="cls-12" points="390.61 360.07 404.81 367.77 462.1 380.15 458.23 366.74 390.61 360.07"/><polygon class="cls-13" points="312.16 335.25 287.34 354.29 302.23 369.06 329.97 370.11 312.16 346.61 312.16 335.25"/><polygon class="cls-14" points="312.16 335.25 312.16 346.61 329.97 370.11 351.64 376.54 345.45 365.44 312.16 335.25"/><path class="cls-15" d="M302.23,393.61l-2.2,17s-30.71-.3-31.48-1.18-10.84-4.76-10.84-4.76l5.68-7.48,23.95-18.38Z" transform="translate(0 -24.55)"/><polygon class="cls-16" points="300.03 386.09 353.19 389.19 351.64 376.54 329.97 370.11 302.23 369.06 300.03 386.09"/><polygon class="cls-17" points="353.19 389.19 417.19 387.38 462.1 386.09 462.1 380.15 404.81 367.77 390.61 360.07 382.36 359.25 345.45 365.44 351.64 376.54 353.19 389.19"/><path class="cls-18" d="M0,427.94v32s176.16.51,177.71,0,30.19-33,30.19-33L35,424Z" transform="translate(0 -24.55)"/><polygon class="cls-19" points="35.03 399.49 207.9 402.35 215.13 391.25 120.68 389.96 35.03 399.49"/><polygon class="cls-20" points="215.13 391.25 268.55 384.91 261.05 381.47 216.42 383.51 196.55 379.9 141.09 384.91 120.68 389.96 215.13 391.25"/><polygon class="cls-21" points="216.42 383.51 263.39 372.67 257.71 380.15 261.05 381.47 216.42 383.51"/><polygon class="cls-22" points="207.9 402.35 355.77 399.49 353.19 389.19 300.03 386.09 268.55 384.91 215.13 391.25 207.9 402.35"/><polygon class="cls-23" points="355.77 399.49 507.52 402.35 512.16 391.25 462.1 386.09 353.19 389.19 355.77 399.49"/><polygon class="cls-24" points="462.1 386.09 462.1 380.15 595.28 389.19 595.28 397.96 512.16 391.25 462.1 386.09"/><polygon class="cls-25" points="507.52 402.35 493.84 430.74 595.28 434.09 595.28 397.96 512.16 391.25 507.52 402.35"/><polygon class="cls-26" points="493.84 430.74 316.29 434.09 355.77 399.49 507.52 402.35 493.84 430.74"/><polygon class="cls-27" points="316.29 434.09 177.71 435.38 207.9 402.35 355.77 399.49 316.29 434.09"/><polygon class="cls-28" points="0 435.38 0 453.96 133.06 478.48 177.71 435.38 0 435.38"/><polygon class="cls-29" points="316.29 434.09 302.23 458.61 153.65 458.61 177.71 435.38 316.29 434.09"/><polygon class="cls-30" points="302.23 458.61 495.64 458.61 493.84 430.74 316.29 434.09 302.23 458.61"/><polygon class="cls-31" points="495.64 458.61 595.28 485.44 595.28 434.09 493.84 430.74 495.64 458.61"/><polygon class="cls-32" points="403.77 458.61 411.9 505.83 435.26 493.7 429.58 458.61 403.77 458.61"/><path class="cls-33" d="M429.58,483.16s29.68,43.1,30.45,43.1,49.29-2.58,49.29-2.58L521,490l-25.39-6.84Z" transform="translate(0 -24.55)"/><polygon class="cls-34" points="514.08 485.44 531.26 505.83 545.71 494.22 557.32 508.15 570.48 508.15 595.28 503.51 595.28 485.44 521.04 465.45 514.08 485.44"/><polygon class="cls-35" points="302.23 458.61 302.23 501.7 320.68 505.83 345.45 502.99 351.64 496.8 361.19 503.51 389.32 458.61 302.23 458.61"/><polygon class="cls-35" points="302.23 482.22 290.48 495.25 282.74 495.25 275.52 458.61 302.23 458.61 302.23 482.22"/><polygon class="cls-36" points="139.77 472.01 149.84 480.15 161.45 472.01 172.81 482.22 216.42 493.19 229.84 458.61 153.65 458.61 139.77 472.01"/><polygon class="cls-37" points="222.73 476.93 237.58 493.19 256.16 485.06 275.52 458.61 229.84 458.61 222.73 476.93"/><polygon class="cls-38" points="0 453.96 0 496.54 58.74 507.38 64.16 500.93 76.72 468.1 0 453.96"/><polygon class="cls-39" points="64.16 500.93 91.77 502.48 133.06 478.48 76.72 468.1 64.16 500.93"/><polygon class="cls-40" points="50.35 505.83 43.77 529.06 36.03 529.06 32.17 502.48 50.35 505.83"/><path class="cls-41" d="M149.84,504.71s.77,17.68,0,18.45-10.07,15-10.07,15l-6.71-22.71-8,8.52L119,511.24,133.06,503l6.71-6.47Z" transform="translate(0 -24.55)"/><polygon class="cls-42" points="172.81 482.22 176.16 507.38 179.77 524.67 188.81 515.77 191.9 487.02 172.81 482.22"/><polygon class="cls-43" points="0 496.54 0 574.48 60.55 584.54 36.03 529.06 32.17 502.48 0 496.54"/><polygon class="cls-44" points="60.55 584.54 109.84 586.86 91.77 502.48 64.16 500.93 58.74 507.38 50.35 505.83 43.77 529.06 36.03 529.06 60.55 584.54"/><polygon class="cls-45" points="91.77 502.48 118.95 486.68 125.08 499.38 133.06 490.86 139.77 513.57 142.87 534.74 161.71 573.96 109.84 586.86 91.77 502.48"/><polygon class="cls-46" points="139.77 513.57 149.84 498.61 149.84 480.15 161.45 472.01 172.81 482.22 176.16 507.38 179.77 524.67 207.9 545.83 222.73 589.96 161.71 573.96 142.87 534.74 139.77 513.57"/><polygon class="cls-47" points="179.77 524.67 188.81 515.77 191.9 487.02 216.42 493.19 222.73 476.93 237.58 493.19 247.26 536.77 267.52 598.61 222.73 589.96 207.9 545.83 179.77 524.67"/><polygon class="cls-48" points="237.58 493.19 256.16 485.06 275.52 458.61 282.74 495.25 290.48 495.25 287.39 522.86 297.64 584.03 267.52 598.61 247.26 536.77 237.58 493.19"/><polygon class="cls-49" points="290.48 495.25 302.23 482.22 302.23 501.7 310.87 550.22 337.71 598.61 332.55 630.48 290.48 628.93 297.64 584.03 287.39 522.86 290.48 495.25"/><polygon class="cls-50" points="337.71 598.61 382.36 611.38 345.45 502.99 320.68 505.83 302.23 501.7 310.87 550.22 337.71 598.61"/><path class="cls-51" d="M411.9,530.39l12.26,84.13-2.58,58.06s-8.77,39.23-9.68,40.52-45,3.35-45,3.35l15.48-80.51-36.9-108.39,6.2-6.2,9.54,6.71,28.13-44.9h14.45Z" transform="translate(0 -24.55)"/><path class="cls-52" d="M460,526.26,474,569.61s4.64,96.78,3.61,97.55-24,49.29-24,49.29L411.9,713.1l9.68-40.52,2.58-58.06L411.9,530.39l23.36-12.13-5.68-35.1Z" transform="translate(0 -24.55)"/><path class="cls-53" d="M474,569.61l35.35-45.93L514.08,510l17.18,20.39s13.43,38.45,13.3,39.22S563,595.42,563,595.42l14.71,52.9-15.23,36.13-84.9-17.29Z" transform="translate(0 -24.55)"/><polygon class="cls-54" points="473.97 545.06 460.03 501.7 509.32 499.12 473.97 545.06"/><polygon class="cls-55" points="531.26 505.83 545.71 494.22 557.32 508.15 570.48 508.15 595.28 503.51 595.28 582.22 563 570.86 544.56 545.06 531.26 505.83"/><polygon class="cls-56" points="0 574.48 0 689.32 87.39 683.12 60.55 584.54 0 574.48"/><polygon class="cls-57" points="60.55 584.54 109.84 586.86 161.71 573.96 192.94 626.61 170.23 683.38 87.39 683.12 60.55 584.54"/><polygon class="cls-58" points="192.94 626.61 209.47 586.49 161.71 573.96 192.94 626.61"/><polygon class="cls-59" points="209.47 586.49 231.39 648.54 237.58 695.25 264.94 769.06 235.26 779.64 172.81 771.64 182.1 722.61 170.23 683.38 192.94 626.61 209.47 586.49"/><polygon class="cls-60" points="237.58 695.25 260.55 700.93 267.52 598.61 222.73 589.96 209.47 586.49 231.39 648.54 237.58 695.25"/><polygon class="cls-61" points="260.55 700.93 281.19 712.54 302.23 705.06 310.08 629.65 290.48 628.93 297.64 584.03 267.52 598.61 260.55 700.93"/><path class="cls-62" d="M302.23,729.61s.9,43.1,2.19,43.62,49.29,5.93,49.29,5.93l22.71-15.22-9.55-47.49,15.48-80.51-44.64-12.78L332.55,655l-22.47-.82Z" transform="translate(0 -24.55)"/><polygon class="cls-63" points="0 689.32 0 792.78 134.57 792.78 87.39 683.12 0 689.32"/><polygon class="cls-64" points="87.39 683.12 134.57 792.78 174.87 792.78 172.81 771.64 182.1 722.61 170.23 683.38 87.39 683.12"/><polygon class="cls-65" points="174.87 792.78 336.42 792.78 304.42 748.67 264.94 769.06 235.26 779.64 172.81 771.64 174.87 792.78"/><polygon class="cls-66" points="237.58 695.25 264.94 769.06 304.42 748.67 302.23 705.06 281.19 712.54 260.55 700.93 237.58 695.25"/><polygon class="cls-67" points="304.42 748.67 336.42 792.78 405.06 792.78 401.19 749.7 376.42 739.38 353.71 754.61 304.42 748.67"/><polygon class="cls-68" points="401.19 749.7 411.9 688.54 366.87 691.9 376.42 739.38 401.19 749.7"/><polygon class="cls-69" points="453.58 691.9 498.74 749.7 509.58 792.78 405.06 792.78 401.19 749.7 411.9 688.54 453.58 691.9"/><polygon class="cls-70" points="562.48 659.9 498.74 749.7 453.58 691.9 477.58 642.61 562.48 659.9"/><polygon class="cls-71" points="595.28 582.22 563 570.86 577.71 623.77 562.48 659.9 498.74 749.7 509.58 792.78 595.28 792.78 595.28 582.22"/></g></svg>